<svg width="274" height="331" viewBox="0 0 274 331" fill="none" xmlns="http://www.w3.org/2000/svg">
<path d="M149.576 90.4159C150.076 90.3172 150.576 90.1198 151.076 90.0211C159.575 87.5541 167.975 83.4096 173.774 76.6993C179.474 70.1864 183.274 62.0946 189.674 56.1738C197.373 49.1675 207.872 46.4046 218.072 48.5755C223.572 49.7597 228.671 51.4372 233.271 53.5095C237.371 55.3844 241.17 57.654 244.57 60.121C247.87 62.588 250.97 65.3511 253.67 68.3115C263.069 78.6729 268.869 91.7973 271.269 105.909C271.769 108.968 272.169 112.125 272.369 115.283C272.669 120.118 272.669 124.954 272.369 129.789C271.569 139.854 269.369 149.821 265.769 159.196C263.269 165.61 260.369 171.827 257.07 177.945C255.37 180.905 253.67 183.964 251.87 186.826" stroke="#CCDDE2" stroke-width="1.9523" stroke-miterlimit="10"/>
<path d="M272.569 115.382C254.97 109.954 242.17 93.6722 242.17 74.5283C242.17 69.4957 243.07 64.6604 244.67 60.1211C247.97 62.5881 251.07 65.3512 253.77 68.3116C263.169 78.673 268.969 91.7974 271.369 105.909C271.969 109.066 272.369 112.224 272.569 115.382Z" stroke="#CCDDE2" stroke-width="1.9523" stroke-miterlimit="10"/>
<path d="M34.2828 140.743C34.2828 140.743 -21.2139 188.208 12.9841 243.469C19.5837 254.126 24.6834 262.909 28.5831 270.112C28.7831 270.606 29.0831 271 29.2831 271.395C44.9822 300.802 41.1824 304.552 41.1824 304.552" stroke="#CCDDE2" stroke-width="1.9523" stroke-miterlimit="10"/>
<path d="M119.878 93.277C112.878 92.981 105.979 92.1917 99.179 91.1064" stroke="#CCDDE2" stroke-width="1.9523" stroke-miterlimit="10"/>
<path d="M99.079 294.782V297.644V302.775C99.079 303.663 98.479 304.354 97.579 304.552C97.479 304.552 97.3791 304.552 97.1791 304.552H91.9794H57.9814H41.1824" stroke="#CCDDE2" stroke-width="1.9523" stroke-miterlimit="10"/>
<path d="M99.0789 257.382V208.832C99.0789 206.464 97.0791 204.49 94.6792 204.49H30.383C29.3831 204.49 28.4832 205.279 28.4832 206.365V237.745V270.211" stroke="#CCDDE2" stroke-width="1.9523" stroke-miterlimit="10"/>
<path d="M99.0789 257.382V237.745H28.5831V270.112" stroke="#CCDDE2" stroke-width="1.9523" stroke-miterlimit="10"/>
<path d="M90.4795 271.494H29.2831" stroke="#CCDDE2" stroke-width="1.9523" stroke-miterlimit="10"/>
<path d="M63.8811 259.652C66.6975 259.652 68.9807 257.399 68.9807 254.619C68.9807 251.84 66.6975 249.587 63.8811 249.587C61.0646 249.587 58.7814 251.84 58.7814 254.619C58.7814 257.399 61.0646 259.652 63.8811 259.652Z" stroke="#CCDDE2" stroke-width="1.9523" stroke-miterlimit="10"/>
<path d="M63.8811 227.186C66.6975 227.186 68.9807 224.933 68.9807 222.154C68.9807 219.374 66.6975 217.121 63.8811 217.121C61.0646 217.121 58.7814 219.374 58.7814 222.154C58.7814 224.933 61.0646 227.186 63.8811 227.186Z" stroke="#CCDDE2" stroke-width="1.9523" stroke-miterlimit="10"/>
<path d="M63.8811 293.795C66.6975 293.795 68.9807 291.542 68.9807 288.763C68.9807 285.983 66.6975 283.73 63.8811 283.73C61.0646 283.73 58.7814 285.983 58.7814 288.763C58.7814 291.542 61.0646 293.795 63.8811 293.795Z" stroke="#CCDDE2" stroke-width="1.9523" stroke-miterlimit="10"/>
<path d="M131.977 204.49H94.7792H30.483H22.5835V197.484H135.377" stroke="#CCDDE2" stroke-width="1.9523" stroke-miterlimit="10"/>
<path d="M84.2798 176.859L80.9801 195.213C80.7801 196.299 79.8801 197.088 78.7802 197.088H61.3812C60.2813 197.088 59.3814 196.299 59.1814 195.213L56.0815 176.859H84.2798Z" stroke="#CCDDE2" stroke-width="1.9523" stroke-miterlimit="10"/>
<path d="M87.3796 174.787C87.2796 175.971 86.2797 176.859 85.1797 176.859H55.1816C53.9816 176.859 53.0817 175.971 52.9817 174.886C52.8817 173.603 53.8816 172.419 55.1816 172.419H85.1797C86.4797 172.32 87.5796 173.504 87.3796 174.787Z" stroke="#CCDDE2" stroke-width="1.9523" stroke-miterlimit="10"/>
<path d="M71.1806 172.319C71.1806 171.431 73.5805 159.688 71.5806 149.327C70.4806 143.603 68.0808 138.373 63.1811 135.413" stroke="#CCDDE2" stroke-width="1.9523" stroke-miterlimit="10"/>
<path d="M71.5806 149.328C71.5806 149.328 72.1805 141.433 79.0801 140.94" stroke="#CCDDE2" stroke-width="1.9523" stroke-miterlimit="10"/>
<path d="M72.2805 161.366C72.2805 161.366 74.8804 159.294 78.9801 159.492" stroke="#CCDDE2" stroke-width="1.9523" stroke-miterlimit="10"/>
<path d="M72.2805 155.742C72.2805 155.742 67.2808 149.92 59.2812 154.558" stroke="#CCDDE2" stroke-width="1.9523" stroke-miterlimit="10"/>
<path d="M68.7807 153.374C68.7807 153.374 57.4814 143.209 55.2816 156.926C55.2816 156.926 58.4814 158.998 63.1811 156.926C67.8808 154.854 68.7807 153.374 68.7807 153.374Z" stroke="#CCDDE2" stroke-width="1.9523" stroke-miterlimit="10"/>
<path d="M74.0804 143.308C74.0804 143.308 73.6804 138.769 79.0801 137.19C84.4798 135.71 87.4796 141.927 87.4796 141.927C87.4796 141.927 83.2799 146.565 74.0804 143.308Z" stroke="#CCDDE2" stroke-width="1.9523" stroke-miterlimit="10"/>
<path d="M75.2804 159.492C75.2804 159.492 75.0804 154.854 81.38 155.84C87.6796 156.827 88.6796 162.057 88.6796 162.057C88.6796 162.057 78.3802 165.807 75.2804 159.985" stroke="#CCDDE2" stroke-width="1.9523" stroke-miterlimit="10"/>
<path d="M67.7809 139.756C67.7809 140.052 63.0812 139.361 62.7812 139.262C60.4814 138.572 58.8815 136.993 57.7815 135.019C57.4816 134.427 55.5817 130.776 56.0817 130.184C56.0817 130.085 67.281 126.533 67.7809 139.756Z" stroke="#CCDDE2" stroke-width="1.9523" stroke-miterlimit="10"/>
<path d="M165.475 144.986C165.475 144.986 172.675 170.248 159.275 179.721C159.475 180.511 171.975 178.932 171.975 178.932L171.275 192.55C171.275 192.55 185.774 198.076 192.473 198.174C199.173 198.273 205.873 191.859 207.573 188.603C209.272 185.346 238.271 190.477 235.771 211.792C235.771 211.792 217.272 230.936 196.773 224.917C196.773 224.917 182.774 219.489 188.374 225.904C193.973 232.318 225.671 254.422 229.271 298.532C229.271 298.532 255.77 282.743 257.17 234.094C258.57 185.445 244.37 165.413 229.771 150.216C229.771 150.216 218.772 142.618 217.072 144.887C215.372 147.157 204.173 156.137 200.473 155.545C196.773 154.953 191.273 155.15 192.973 150.907C194.673 146.663 196.073 148.538 195.473 145.381C194.873 142.124 194.673 141.828 190.874 142.124C186.974 142.618 165.475 144.986 165.475 144.986Z" fill="#FE7624"/>
<path d="M102.079 294.782C98.779 297.94 95.3792 301.295 91.9794 304.65H57.9814C55.1816 304.65 52.9817 302.479 52.9817 299.716C52.9817 298.335 53.5817 297.151 54.4816 296.262C55.3815 295.374 56.5815 294.782 57.9814 294.782H102.079Z" fill="#0F0F0F"/>
<path d="M233.471 115.579C233.471 116.467 233.371 117.257 233.271 118.145L231.671 123.671C228.071 131.269 219.972 134.822 215.672 136.105C214.172 136.598 213.172 136.796 212.972 136.796C211.872 133.243 212.272 129.691 214.472 126.533C215.472 125.151 216.872 124.164 217.672 122.684C218.472 121.303 218.572 119.625 217.372 118.54C216.972 118.145 216.572 117.849 216.072 117.553C215.172 117.158 214.172 117.059 213.272 117.454C213.072 117.553 212.972 117.652 212.772 117.652C210.972 116.369 212.172 114.494 212.772 112.915C212.872 112.718 212.872 112.52 212.972 112.323C212.972 112.323 212.972 112.323 212.972 112.224C213.172 111.731 214.372 107.192 211.172 103.244C210.872 102.85 210.672 102.554 210.472 102.258C209.672 100.777 209.772 99.3958 210.272 98.3104C210.972 96.6328 212.272 95.5473 212.472 95.35C213.472 94.4619 214.672 93.9684 215.972 93.771C221.672 94.5604 227.671 99.1984 228.071 99.4945C231.271 103.54 233.471 108.672 233.471 115.579Z" fill="#0F0F0F"/>
<path d="M227.971 99.7904C227.371 99.297 215.772 90.2185 209.572 95.6458C207.972 95.9419 204.973 96.6327 201.773 98.3102H201.573C201.573 98.3102 203.473 91.7975 211.372 91.8961C216.072 91.8961 223.172 94.1657 227.971 99.7904Z" fill="#0F0F0F"/>
<path d="M246.37 129.098C245.37 134.328 240.97 138.966 241.17 144.295C241.37 149.426 243.67 154.36 244.17 159.492C244.37 161.268 244.27 164.228 243.97 167.386C243.97 167.485 243.97 167.485 243.97 167.485C240.77 161.564 232.571 153.374 228.971 149.92C229.571 148.736 230.171 147.551 230.971 146.466C233.271 143.21 235.471 139.854 236.871 136.105C237.871 133.736 239.171 130.282 237.971 127.717C237.771 127.223 237.471 126.829 237.071 126.631C236.971 126.138 236.871 125.645 236.671 125.151C236.071 123.967 235.171 123.474 234.171 123.474C233.371 123.375 232.471 123.572 231.771 123.77V123.671C232.571 121.993 233.171 120.217 233.371 118.145C235.171 116.566 238.271 114.79 242.67 116.961C244.57 117.849 245.57 119.526 246.07 121.303C246.97 123.868 246.77 126.829 246.37 129.098Z" fill="#0F0F0F"/>
<path d="M215.772 257.284C205.973 242.975 194.673 230.739 183.774 220.673C181.074 218.206 178.474 215.838 175.874 213.667C170.575 209.128 165.575 205.181 160.975 201.825C152.776 195.707 141.676 196.299 134.277 202.319C132.377 203.799 130.777 205.674 129.377 207.845L76.0803 294.782H62.4811H57.9814C56.5815 294.782 55.3815 295.374 54.4816 296.262C53.5817 297.15 52.9817 298.433 52.9817 299.716C52.9817 302.381 55.1816 304.65 57.9814 304.65H91.9794C95.3792 301.295 98.679 298.039 102.079 294.782C122.078 275.638 140.776 259.652 147.976 253.632" stroke="black" stroke-width="1.9523" stroke-miterlimit="10"/>
<path d="M171.275 192.648C170.575 180.905 173.075 169.557 178.774 159.196" stroke="black" stroke-width="1.9523" stroke-miterlimit="10"/>
<path d="M211.572 178.734C204.673 207.253 181.874 196.299 181.874 196.299L173.075 193.24L153.076 186.333C149.876 184.951 146.076 185.05 143.076 186.925C140.476 188.602 134.577 195.51 134.377 202.319" stroke="black" stroke-width="1.9523" stroke-miterlimit="10"/>
<path d="M144.476 244.455C145.576 247.712 146.776 250.771 147.976 253.731C175.074 319.255 222.072 302.874 222.072 302.874C263.569 282.94 264.969 207.845 243.57 167.584C243.47 167.386 243.37 167.09 243.17 166.893C239.171 159.591 233.871 152.782 226.871 148.44C224.871 147.256 222.772 146.17 220.472 145.381C219.172 144.887 217.872 144.493 216.472 144.197" stroke="black" stroke-width="1.9523" stroke-miterlimit="10"/>
<path d="M149.676 148.143C159.175 145.676 168.875 144.394 178.674 143.308C183.574 142.815 189.174 142.322 194.873 142.223" stroke="black" stroke-width="1.9523" stroke-miterlimit="10"/>
<path d="M137.077 100.382C137.077 100.382 135.377 90.4157 139.577 86.6658C141.476 84.9883 141.776 82.916 142.276 80.5477C142.876 77.3899 146.276 76.107 148.276 78.8701C150.176 81.4358 149.476 85.975 149.476 88.8368" stroke="black" stroke-width="1.9523" stroke-miterlimit="10"/>
<path d="M137.977 88.8369C137.977 88.8369 133.077 89.0343 133.877 78.6729C133.977 76.9954 135.277 74.4297 136.877 74.1337L138.177 73.9362C140.176 73.5415 141.576 71.864 141.576 69.8904V58.3449C141.576 56.4699 142.876 54.6936 144.776 54.2989C147.376 53.8055 149.576 55.7791 149.576 58.1474L149.676 152.683" stroke="black" stroke-width="1.9523" stroke-miterlimit="10"/>
<path d="M136.677 94.2642C128.177 95.251 127.477 84.791 127.577 80.1531C127.577 80.1531 127.577 80.1531 127.577 80.0544" stroke="black" stroke-width="1.9523" stroke-miterlimit="10"/>
<path d="M122.378 84.791C122.378 84.791 121.378 98.2114 129.877 91.3038" stroke="black" stroke-width="1.9523" stroke-miterlimit="10"/>
<path d="M215.872 327.642C214.872 328.827 213.272 329.517 211.672 329.123C210.872 328.925 210.172 328.629 209.572 328.037C209.172 327.642 208.472 327.149 207.473 326.557C211.772 313.334 198.073 304.255 197.673 303.959C199.573 304.65 201.373 305.242 202.973 305.834C204.173 306.328 205.373 306.722 206.473 307.117C210.472 308.597 213.672 311.656 215.472 315.406C216.972 318.663 218.372 324.781 215.872 327.642Z" fill="#0F0F0F"/>
<path d="M243.37 166.893C253.27 180.807 245.87 200.247 235.871 211.99C222.272 227.976 202.473 229.653 183.874 220.673" stroke="black" stroke-width="1.9523" stroke-miterlimit="10"/>
<path d="M217.672 144.986C215.772 142.223 213.672 139.164 212.972 136.993C211.872 133.44 212.272 129.888 214.472 126.73C215.472 125.348 216.872 124.362 217.672 122.881C218.472 121.5 218.572 119.822 217.372 118.737C216.372 117.75 214.672 117.059 213.272 117.75C212.072 118.342 211.372 119.033 209.972 118.046C207.872 116.566 209.772 114.395 210.072 112.717C210.172 112.421 210.172 112.125 210.272 111.829" stroke="black" stroke-width="1.9523" stroke-miterlimit="10"/>
<path d="M192.573 130.579L196.073 148.637L196.873 152.387" stroke="black" stroke-width="1.9523" stroke-miterlimit="10"/>
<path d="M195.873 147.256C192.973 150.117 190.274 154.064 196.773 155.347C205.473 157.123 214.872 148.045 217.772 144.887" stroke="black" stroke-width="1.9523" stroke-miterlimit="10"/>
<path d="M201.573 98.2116C201.573 98.2116 203.473 91.7974 211.372 91.7974C219.272 91.7974 233.671 98.113 233.471 115.579C233.271 133.046 212.972 136.894 212.972 136.894" stroke="black" stroke-width="1.9523" stroke-miterlimit="10"/>
<path d="M172.375 27.556C172.375 42.2593 160.375 54.101 145.476 54.101C139.377 54.101 133.677 52.1273 129.177 48.6735C124.877 43.9369 122.378 37.8187 122.378 31.0098C122.378 16.3065 134.377 4.46484 149.276 4.46484C155.376 4.46484 161.075 6.53712 165.575 9.89225C169.875 14.6289 172.375 20.7471 172.375 27.556Z" fill="#205EFF"/>
<path d="M227.971 99.7904C227.971 99.7904 215.872 90.1197 209.572 95.6458C209.572 95.6458 204.873 99.3956 208.272 103.639C211.672 107.882 210.072 112.718 210.072 112.718" stroke="black" stroke-width="1.9523" stroke-miterlimit="10"/>
<path d="M231.571 123.868C233.171 123.375 235.471 123.079 236.471 125.25C237.671 127.816 236.371 131.269 235.371 133.638C233.871 137.388 231.771 140.743 229.471 143.999C228.471 145.381 227.671 146.861 226.971 148.44" stroke="black" stroke-width="1.9523" stroke-miterlimit="10"/>
<path d="M243.67 167.583C243.67 167.485 243.67 167.485 243.67 167.485C244.07 164.327 244.07 161.367 243.87 159.59C243.27 154.459 241.071 149.525 240.871 144.394C240.671 138.966 245.07 134.427 246.07 129.197C246.77 125.151 246.87 119.132 242.47 116.961C238.071 114.79 234.871 116.566 233.171 118.145" stroke="black" stroke-width="1.9523" stroke-miterlimit="10"/>
<path d="M199.573 130.875C197.073 131.171 194.573 131.269 192.573 130.578C188.574 129.197 186.474 124.855 189.674 113.507C193.773 99.2969 205.573 96.2378 209.472 95.6458C208.872 95.6458 208.572 95.8432 208.572 95.8432" stroke="black" stroke-width="1.9523" stroke-miterlimit="10"/>
<path d="M201.009 108.228C203.473 105.577 204.744 102.771 203.849 101.961C202.953 101.151 200.23 102.643 197.767 105.294C195.303 107.944 194.032 110.751 194.927 111.561C195.823 112.371 198.546 110.879 201.009 108.228Z" stroke="black" stroke-width="1.9523" stroke-miterlimit="10"/>
<path d="M209.872 113.21C205.673 110.645 201.773 107.191 201.773 107.191" stroke="black" stroke-width="1.9523" stroke-miterlimit="10"/>
<path d="M102.679 293.894C101.879 299.223 104.979 309.288 138.977 311.262C179.574 313.63 200.673 322.511 207.372 326.557C208.372 327.149 209.072 327.643 209.472 328.037C210.172 328.629 210.872 329.024 211.572 329.123C213.172 329.419 214.772 328.827 215.772 327.642C218.272 324.781 216.872 318.663 215.372 315.505C213.572 311.656 210.372 308.597 206.373 307.216C205.273 306.821 204.073 306.328 202.873 305.933C201.173 305.341 199.473 304.65 197.573 304.058C192.573 302.282 186.974 300.407 181.174 298.631C175.974 297.052 170.475 295.473 165.175 294.091C164.675 293.993 164.175 293.795 163.675 293.697C156.976 292.019 150.376 290.736 144.576 290.045" stroke="black" stroke-width="1.9523" stroke-miterlimit="10"/>
<path d="M165.275 293.992C168.475 293.005 171.975 292.512 174.275 292.216" stroke="black" stroke-width="1.9523" stroke-miterlimit="10"/>
<path d="M127.677 82.4226C127.577 81.6332 127.477 80.6464 126.977 79.9556C126.277 79.0675 125.277 80.0543 124.877 80.6464C122.278 83.8042 121.278 87.9487 120.278 91.6985C119.378 95.251 118.678 98.8035 118.178 102.455C117.278 109.362 117.278 116.369 117.278 123.375C117.178 132.059 117.478 138.177 118.378 146.762C119.778 159.985 124.577 173.11 138.677 177.254C148.876 180.215 160.875 180.116 172.175 178.932" stroke="black" stroke-width="1.9523" stroke-miterlimit="10"/>
<path d="M127.577 80.9418C127.477 79.1658 128.577 77.4885 130.277 76.7979C131.777 76.2059 133.877 76.6006 133.877 78.5739C133.877 78.5739 133.877 78.5739 133.877 78.6726" stroke="black" stroke-width="1.9523" stroke-miterlimit="10"/>
<path d="M145.476 54.1016C160.332 54.1016 172.375 42.217 172.375 27.5566C172.375 12.8963 160.332 1.01172 145.476 1.01172C130.621 1.01172 118.578 12.8963 118.578 27.5566C118.578 42.217 130.621 54.1016 145.476 54.1016Z" stroke="black" stroke-width="1.9523" stroke-miterlimit="10"/>
<path d="M32.0829 304.65C33.4829 304.65 109.078 304.65 109.078 304.65" stroke="black" stroke-width="1.9523" stroke-miterlimit="10"/>
<path d="M202.973 305.933C204.373 305.933 253.77 305.933 253.77 305.933" stroke="black" stroke-width="1.9523" stroke-miterlimit="10"/>
<path d="M177.274 25.6816C178.874 26.9645 179.774 28.3461 179.774 29.8263C179.774 31.6025 178.474 33.1814 176.274 34.6616" stroke="black" stroke-width="1.9523" stroke-miterlimit="10"/>
<path d="M158.975 39.8916C157.575 40.0887 156.076 40.2857 154.476 40.3843" stroke="black" stroke-width="1.9523" stroke-miterlimit="10"/>
<path d="M138.977 40.4836C141.176 40.5823 143.476 40.681 145.776 40.681C147.476 40.681 149.276 40.6811 150.876 40.5824" stroke="black" stroke-width="1.9523" stroke-miterlimit="10"/>
<path d="M113.378 26.3726C112.378 27.458 111.778 28.5435 111.778 29.7277C111.778 31.8986 113.678 33.8721 117.078 35.5497C120.978 37.5233 126.977 39.1021 133.977 39.9902" stroke="black" stroke-width="1.9523" stroke-miterlimit="10"/>
<path d="M104.979 166.992H34.2828V110.251C34.2828 91.008 50.0819 75.3179 69.6807 75.3179C89.1796 75.3179 105.079 90.9093 105.079 110.251V166.992H104.979Z" stroke="#CCDDE2" stroke-width="1.9523" stroke-miterlimit="10"/>
<path d="M56.1815 153.374H44.6822V113.507C44.6822 99.9876 55.7815 88.9355 69.5807 88.9355C83.2799 88.9355 94.4792 99.8889 94.4792 113.507V153.374H72.0806" stroke="#CCDDE2" stroke-width="1.9523" stroke-miterlimit="10"/>
</svg>
