<svg width="306" height="297" viewBox="0 0 306 297" fill="none" xmlns="http://www.w3.org/2000/svg">
<path d="M197.549 255.376V255.475C197.549 263.369 204.048 269.685 211.948 269.685C219.847 269.685 226.347 263.27 226.347 255.475" stroke="#CCDDE2" stroke-width="1.6903" stroke-miterlimit="10"/>
<path d="M273.444 163.801C285.544 165.873 295.843 174.754 300.843 185.905C305.842 196.957 305.942 209.786 302.543 221.529C297.243 240.08 283.844 258.731 267.845 269.783" stroke="#CCDDE2" stroke-width="1.6903" stroke-miterlimit="10"/>
<path d="M202.349 52.8848C223.747 53.5755 243.746 68.2788 242.846 121.073C242.546 138.342 246.946 148.21 256.845 153.144" stroke="#CCDDE2" stroke-width="1.6903" stroke-miterlimit="10"/>
<path d="M100.755 69.956C100.755 69.956 123.253 67.3903 123.353 94.626L186.249 76.5676L196.149 73.5086C196.149 73.5086 181.95 56.5356 165.651 53.6738C165.651 53.6738 165.751 55.6475 166.651 58.5092C167.551 61.3709 164.651 63.1472 160.851 64.2327C156.951 65.3181 149.152 58.9039 147.752 53.1804C147.752 53.1804 149.652 51.4042 142.452 52.687C135.252 53.9699 113.254 59.0026 100.755 69.956Z" fill="#FE7624"/>
<path d="M3.26032 201.99C3.86028 202.286 4.56024 202.483 5.2602 202.483C6.46013 202.483 7.66005 201.99 8.55999 200.904L22.7592 183.734L34.1585 169.524L24.759 164.294C22.7592 163.209 20.1593 163.9 19.0594 165.873L1.56041 196.069C0.36048 198.339 1.16044 200.904 3.26032 201.99Z" fill="#2E2E2E"/>
<path d="M218.948 282.908L230.747 294.355C231.747 295.341 233.147 295.933 234.547 295.933H264.045C266.645 295.933 268.745 293.861 268.745 291.296C268.745 290.111 268.245 289.026 267.545 288.138C266.745 287.348 265.745 286.756 264.545 286.658L248.146 284.98L218.948 282.908Z" fill="#2E2E2E"/>
<path d="M164.651 52.2924V53.0818V53.2792C170.95 54.8581 177.05 57.6212 182.75 61.667C183.65 62.2591 184.45 62.9499 185.35 63.6406C185.35 60.8776 185.15 58.2131 184.25 55.6475C183.45 53.4765 182.15 51.503 180.35 50.0228C178.75 48.7399 176.85 47.9505 174.95 47.161C173.05 46.4703 171.15 45.7795 169.35 44.7927C167.951 44.0032 166.451 42.9178 165.551 41.5363C164.851 40.4508 164.651 39.3653 165.151 38.1812C164.951 38.1812 164.851 38.1812 164.651 38.0825V52.2924Z" fill="#3FBDF1"/>
<path d="M164.651 52.2924V53.0818V53.2792C170.95 54.8581 177.05 57.6212 182.75 61.667C183.65 62.2591 184.45 62.9499 185.35 63.6406C185.35 60.8776 185.15 58.2131 184.25 55.6475C183.45 53.4765 182.15 51.503 180.35 50.0228C178.75 48.7399 176.85 47.9505 174.95 47.161C173.05 46.4703 171.15 45.7795 169.35 44.7927C167.951 44.0032 166.451 42.9178 165.551 41.5363C164.851 40.4508 164.651 39.3653 165.151 38.1812C164.951 38.1812 164.851 38.1812 164.651 38.0825V52.2924Z" fill="#0F0F0F"/>
<path d="M74.4561 113.869C76.8559 115.645 79.6558 116.928 82.5556 117.816C83.7555 118.21 80.8557 119.592 82.1556 119.789C77.1559 108.046 80.7557 89.988 96.6548 73.6072C99.3546 70.8441 105.654 67.2916 108.654 64.8246C113.554 60.8774 119.053 60.384 124.253 57.917C126.453 56.9302 128.753 56.0421 131.353 55.1539C135.753 53.7724 140.152 52.7857 144.652 52.2923C145.652 52.1936 146.652 52.0949 147.752 51.9962C147.552 50.3187 147.552 48.5424 147.852 46.7661C148.752 42.0295 150.452 39.3652 153.451 35.6154C155.351 33.2471 158.251 27.6223 154.351 25.7474C151.852 24.5632 151.652 22.0962 152.851 20.5173C153.851 19.2345 155.851 18.6423 158.251 20.1225C159.951 21.208 161.951 21.2081 163.851 20.7147C165.451 19.8266 166.751 18.5438 167.651 17.2609C170.45 13.215 170.55 7.1955 166.151 4.2351C163.751 2.65622 160.651 2.26155 157.751 2.55759C156.451 2.65627 155.151 2.95224 153.951 3.34695C148.752 6.10999 144.952 11.34 143.152 17.1621C142.052 20.6159 140.852 23.9711 139.452 27.3262C138.352 30.0893 137.552 33.3457 134.953 35.2206C133.853 36.0101 132.653 36.6021 131.353 36.8981C126.553 39.9572 119.853 38.1811 114.554 37.4903C109.954 36.8982 105.754 37.3916 101.954 38.7731C97.4547 41.0427 93.555 44.5952 90.4551 49.2331C85.2555 56.9302 90.7551 68.0811 82.0556 74.1992C79.4558 76.0741 76.4559 77.1596 73.5561 78.5412C69.4564 80.6134 66.1566 83.4751 64.9567 88.0144C62.4568 97.1916 66.7565 108.342 74.4561 113.869Z" fill="#0F0F0F"/>
<path d="M181.65 179.984L248.446 284.783L219.947 283.5L209.348 273.928H197.149C197.149 273.928 164.051 225.969 156.451 217.878C148.852 209.786 156.451 189.162 156.451 189.162L181.65 179.984Z" fill="white"/>
<path d="M286.843 295.933H81.3557" stroke="black" stroke-width="1.6903" stroke-miterlimit="10"/>
<path d="M172.15 13.6101C172.65 14.6955 173.15 15.781 173.55 16.9652C174.05 18.8401 173.55 19.9256 174.35 21.7018C174.65 22.2939 175.05 23.3793 175.45 24.3661C175.55 24.1687 175.65 23.8727 175.75 23.774C178.95 16.6692 174.75 13.314 172.65 12.1299C172.55 12.6233 172.35 13.1167 172.15 13.6101Z" fill="#3FBDF1"/>
<path d="M172.15 13.6101C172.65 14.6955 173.15 15.781 173.55 16.9652C174.05 18.8401 173.55 19.9256 174.35 21.7018C174.65 22.2939 175.05 23.3793 175.45 24.3661C175.55 24.1687 175.65 23.8727 175.75 23.774C178.95 16.6692 174.75 13.314 172.65 12.1299C172.55 12.6233 172.35 13.1167 172.15 13.6101Z" fill="#0F0F0F"/>
<path d="M141.652 203.273C138.252 215.213 132.653 227.351 128.053 235.048C121.153 246.495 106.454 250.738 94.355 244.817L43.7579 220.049V208.799L22.6592 183.734L8.46003 200.905C7.66008 201.891 6.46016 202.483 5.16024 202.483C4.46028 202.483 3.76032 202.286 3.16035 201.99C1.06048 200.905 0.360508 198.339 1.46044 196.267L18.9594 166.07C20.0593 164.097 22.6592 163.406 24.6591 164.492L34.0585 169.722L87.6554 199.424C91.4551 201.595 96.3548 199.326 97.1548 195.082L103.554 162.222" stroke="black" stroke-width="1.6903" stroke-miterlimit="10"/>
<path d="M118.453 184.326L132.153 195.378C146.652 206.628 159.251 220.048 169.45 235.146L196.949 274.026H241.246" stroke="black" stroke-width="1.6903" stroke-miterlimit="10"/>
<path d="M209.848 274.026L218.947 282.908L230.747 294.355C231.747 295.341 233.147 295.933 234.547 295.933H264.045C266.645 295.933 268.745 293.861 268.745 291.295C268.745 290.111 268.245 289.026 267.545 288.138C266.745 287.348 265.745 286.756 264.545 286.658L248.146 284.98L169.05 160.939C164.951 154.525 161.351 143.966 164.551 137.059C176.55 110.81 175.55 85.3503 175.55 85.3503" stroke="black" stroke-width="1.6903" stroke-miterlimit="10"/>
<path d="M164.651 35.9116V52.1938V52.9833V53.1806C166.351 55.6476 167.251 59.1015 165.551 61.6671C163.351 65.1209 158.551 64.5289 155.551 62.6539C154.651 62.0619 153.751 61.3711 152.951 60.779C150.152 58.4107 148.552 55.1542 148.052 51.7004C147.852 50.0228 147.852 48.2466 148.152 46.4704C149.152 41.7338 150.752 39.0693 153.751 35.3195C155.651 32.9512 158.551 27.3264 154.651 25.4515C150.052 23.1819 153.251 16.5703 158.551 19.9254C162.651 22.4911 168.55 19.3334 170.95 15.8796C173.75 11.8337 173.85 5.81415 169.45 2.85375C167.051 1.27487 163.951 0.8802 161.051 1.17624C152.251 2.16304 145.952 8.97194 143.452 17.0637C142.352 20.5175 141.152 23.8727 139.752 27.2278C138.652 29.9908 137.852 33.2473 135.252 35.1222C130.353 38.6747 123.353 36.7997 117.854 36.2077C106.354 34.8261 97.1548 39.8588 90.8551 49.2334C85.6554 56.9304 91.1551 68.0813 82.4556 74.1995C79.8558 76.0744 76.8559 77.1599 73.9561 78.5414C69.8564 80.6137 66.5566 83.4754 65.3567 88.0147C62.9568 97.0932 67.2565 108.244 74.8561 113.77C78.3559 116.237 82.4556 117.816 86.7553 118.605" stroke="black" stroke-width="1.6903" stroke-miterlimit="10"/>
<path d="M187.249 65.8114C187.249 65.614 187.249 65.4167 187.249 65.2193C187.449 61.6669 187.449 57.9171 186.249 54.4633C185.449 52.2923 184.15 50.3188 182.35 48.8386C180.75 47.5558 178.85 46.7663 176.95 45.9769C175.05 45.2861 173.15 44.5953 171.35 43.6085C169.95 42.8191 168.45 41.7336 167.551 40.3521C166.851 39.2666 166.651 38.1812 167.151 36.9971" stroke="black" stroke-width="1.6903" stroke-miterlimit="10"/>
<path d="M43.7579 208.898V175.05" stroke="black" stroke-width="1.6903" stroke-miterlimit="10"/>
<path d="M161.051 32.2605C162.351 34.1354 164.151 36.2077 166.451 36.8984C169.35 37.8852 171.35 35.4182 172.45 32.9512C173.05 31.5697 173.55 29.9908 174.05 28.5106C174.25 28.0172 174.35 27.8199 174.85 27.7212C175.45 27.7212 176.05 27.8199 176.55 27.8199C176.75 27.8199 176.85 27.6225 176.75 27.4251C175.95 26.2409 174.85 23.0832 174.25 21.8004C173.45 20.0241 174.05 18.8399 173.45 17.0637C173.15 15.8795 172.55 14.794 172.15 13.7085" stroke="black" stroke-width="1.6903" stroke-miterlimit="10"/>
<path d="M173.05 10.3535C173.05 10.3535 181.05 13.4125 176.95 22.4911C176.65 23.0831 176.05 24.1687 175.75 24.7607" stroke="black" stroke-width="1.6903" stroke-miterlimit="10"/>
<path d="M172.55 32.6549C172.55 32.6549 170.45 33.0495 169.65 30.7803" stroke="black" stroke-width="1.6903" stroke-miterlimit="10"/>
<path d="M173.95 20.4186C172.25 19.0372 170.45 20.8133 169.35 21.9973" stroke="black" stroke-width="1.6903" stroke-miterlimit="10"/>
<path d="M164.651 53.1807C170.95 54.7595 177.05 57.5226 182.75 61.5685C184.35 62.6539 185.849 63.9369 187.349 65.121C193.149 69.9563 198.349 75.6798 203.248 81.4032" stroke="black" stroke-width="1.6903" stroke-miterlimit="10"/>
<path d="M210.748 135.282C210.648 135.184 210.648 135.184 210.748 135.282C204.148 128.769 197.549 122.355 190.949 115.941C185.449 110.514 178.35 105.086 174.95 97.9812" stroke="black" stroke-width="1.6903" stroke-miterlimit="10"/>
<path d="M134.053 181.661C134.553 181.464 135.052 181.366 135.552 181.168" stroke="black" stroke-width="1.6903" stroke-miterlimit="10"/>
<path d="M84.3555 105.876L123.353 94.6261L195.049 74.002C202.148 71.9298 209.748 76.0743 211.848 83.0806L227.247 135.282C229.347 142.289 225.147 149.788 218.047 151.86L141.652 173.767L134.353 175.84L126.953 178.011L119.653 180.083L113.754 181.76L92.755 187.78C85.6554 189.852 78.0559 185.708 75.956 178.701L60.5569 126.5C58.457 119.493 62.6568 111.994 69.7564 109.921L70.3564 109.724L70.8563 109.625L80.6557 106.764L84.3555 105.876Z" fill="white"/>
<path d="M90.2551 107.257L126.453 96.8959L192.849 77.8506C199.449 75.9757 206.448 79.7255 208.348 86.2384L222.647 134.592C224.547 141.104 220.747 148.012 214.148 149.887L143.352 170.215L136.552 172.189L129.653 174.162L122.853 176.136L117.354 177.715L94.8549 184.228C88.2553 186.103 81.2557 182.353 79.3558 175.84L65.0566 127.487C63.1567 120.974 66.9565 114.066 73.5561 112.191L74.0561 112.093L74.4561 111.994L86.5553 108.441L90.2551 107.257Z" fill="#205EFF"/>
<path d="M94.1549 108.935L127.653 99.2641L191.649 80.8108C197.749 79.0346 204.248 82.5871 206.048 88.6066L219.247 133.407C221.047 139.427 217.448 145.841 211.348 147.617L143.252 167.255L136.952 169.031L130.553 170.906L124.253 172.682L119.153 174.162L96.2547 180.774C90.1551 182.55 83.6555 178.998 81.8556 172.978L68.6564 128.177C66.8565 122.158 70.4563 115.744 76.5559 113.967L79.0558 113.277L79.4558 113.178L90.6551 109.823L94.1549 108.935Z" fill="#205EFF"/>
<path d="M143.952 135.579L83.6556 152.354C82.3556 152.749 80.9557 151.96 80.5557 150.578C80.4557 150.381 80.4557 150.085 80.4557 149.887C80.4557 148.802 81.1557 147.815 82.3557 147.519L142.652 130.743C142.452 131.533 142.352 132.421 142.652 133.21C142.752 134.197 143.252 134.987 143.952 135.579Z" fill="#FE7624"/>
<path d="M158.051 129.756C158.051 130.841 157.351 131.828 156.251 132.223L151.952 133.407C152.151 132.617 152.251 131.729 151.952 130.94C151.752 130.052 151.252 129.263 150.552 128.671L154.851 127.487C156.151 127.092 157.551 127.882 157.951 129.263C157.951 129.362 158.051 129.559 158.051 129.756Z" fill="#FEEFE5"/>
<path d="M160.751 139.328C160.751 140.414 160.051 141.401 158.951 141.697L99.0546 158.374C99.4546 157.485 99.5546 156.4 99.2546 155.314C99.0546 154.624 98.6546 153.933 98.2546 153.44L157.551 136.96C158.951 136.565 160.351 137.355 160.651 138.736C160.751 138.934 160.751 139.131 160.751 139.328Z" fill="#FEEFE5"/>
<path d="M91.8551 160.445L86.4554 161.925C85.1555 162.32 83.6556 161.53 83.3556 160.248C83.2556 160.051 83.2556 159.755 83.2556 159.557C83.2556 158.472 83.9555 157.485 85.0554 157.189L89.8552 155.808C89.7552 156.4 89.7552 157.091 89.9552 157.781C90.2552 158.867 90.9552 159.853 91.8551 160.445Z" fill="#FE7624"/>
<path d="M145.452 155.907L89.5552 171.498C88.2552 171.893 86.8554 171.103 86.4554 169.722C86.3554 169.524 86.3554 169.228 86.3554 169.031C86.3554 167.946 87.0554 166.959 88.1553 166.564L143.952 151.071C143.752 151.861 143.752 152.65 143.952 153.538C144.252 154.525 144.752 155.315 145.452 155.907Z" fill="#FE7624"/>
<path d="M163.851 148.9C163.851 149.986 163.151 150.973 161.951 151.269L153.151 153.736L145.352 155.907C144.652 155.315 144.152 154.525 143.852 153.538C143.652 152.749 143.652 151.861 143.852 151.071L151.852 148.9L160.551 146.433C161.851 146.038 163.251 146.828 163.651 148.111C163.851 148.506 163.851 148.703 163.851 148.9Z" fill="#FEEFE5"/>
<path d="M151.851 133.408C151.352 134.987 150.152 136.27 148.452 136.665C146.852 137.059 145.152 136.665 143.952 135.579C143.252 134.987 142.752 134.198 142.552 133.31C142.352 132.421 142.352 131.632 142.552 130.843C143.052 129.264 144.252 127.981 145.952 127.586C147.552 127.191 149.252 127.586 150.452 128.672C151.151 129.264 151.651 130.053 151.851 130.941C152.051 131.731 152.051 132.619 151.851 133.408Z" fill="white"/>
<path d="M149.252 131.138C149.352 131.73 149.152 132.322 148.952 132.815C148.852 133.111 148.652 133.308 148.552 133.604C148.452 133.703 147.952 134.394 147.852 134.394C146.852 134.196 145.552 133.506 145.052 132.519C144.952 132.322 144.952 132.223 144.952 132.026C144.852 131.434 145.252 130.842 145.852 130.743C146.252 130.644 146.652 130.743 146.952 130.94C147.152 130.546 147.352 130.348 147.752 130.25C148.352 129.954 149.152 130.447 149.252 131.138Z" fill="#FE7624"/>
<path d="M99.0546 158.472C98.4546 159.755 97.3547 160.841 95.8548 161.235C94.4549 161.63 92.955 161.334 91.8551 160.545C90.9551 159.953 90.2551 158.966 89.9552 157.88C89.7552 157.19 89.7552 156.499 89.8552 155.907C90.1552 154.131 91.4551 152.552 93.355 152.058C95.1549 151.565 97.0548 152.256 98.1547 153.538C98.6547 154.032 98.9546 154.723 99.1546 155.413C99.5546 156.4 99.4546 157.486 99.0546 158.472Z" fill="white"/>
<path d="M96.6548 155.61C96.7548 156.202 96.5548 156.794 96.3548 157.288C96.2548 157.584 96.0548 157.781 95.9548 158.077C95.8548 158.176 95.3548 158.867 95.2548 158.867C94.2549 158.669 92.955 157.979 92.455 156.992C92.355 156.794 92.355 156.696 92.355 156.498C92.255 155.906 92.655 155.314 93.255 155.216C93.6549 155.117 94.0549 155.216 94.3549 155.413C94.5549 155.018 94.7549 154.821 95.1549 154.722C95.8548 154.426 96.5548 154.92 96.6548 155.61Z" fill="#FE7624"/>
<path d="M153.251 153.736C152.751 155.315 151.552 156.499 149.852 156.992C148.252 157.387 146.652 156.992 145.452 155.907C144.752 155.315 144.252 154.525 143.952 153.538C143.752 152.749 143.752 151.861 143.952 151.071C144.352 149.493 145.652 148.21 147.352 147.716C149.052 147.322 150.652 147.815 151.852 148.802C152.451 149.394 152.951 150.183 153.251 151.071C153.551 152.058 153.551 152.946 153.251 153.736Z" fill="white"/>
<path d="M150.752 151.466C150.852 152.058 150.652 152.65 150.452 153.143C150.352 153.439 150.152 153.637 150.052 153.933C149.952 154.031 149.452 154.722 149.352 154.722C148.352 154.524 147.052 153.834 146.552 152.847C146.452 152.65 146.452 152.551 146.452 152.354C146.352 151.762 146.752 151.17 147.352 151.071C147.752 150.973 148.152 151.071 148.452 151.268C148.652 150.874 148.852 150.677 149.252 150.578C149.852 150.282 150.552 150.775 150.752 151.466Z" fill="#FE7624"/>
<path d="M143.352 166.564C140.152 166.761 136.752 162.222 135.652 161.038C135.552 160.939 135.452 160.84 135.252 160.742L132.353 158.472L132.853 162.123C133.653 163.899 137.652 167.649 140.552 171.991C143.452 176.333 140.652 177.32 139.152 177.813C137.652 178.405 135.952 175.445 136.652 178.603C137.252 181.76 133.553 181.76 131.253 181.366C128.953 180.971 128.053 178.405 128.653 180.477C129.153 182.451 127.453 183.931 125.853 183.931C124.653 184.03 122.353 182.352 121.353 181.662C121.153 182.945 120.253 185.313 117.254 184.03C113.254 182.352 109.454 172.386 106.554 162.222C103.654 152.058 84.5555 133.407 81.8557 113.671V113.573C81.7557 112.092 81.6557 110.612 81.6557 109.033C81.6557 106.172 81.9557 103.409 82.4556 100.448C82.8556 98.3759 83.4556 96.3036 84.0555 94.4287L115.454 100.547C115.254 100.744 115.054 101.04 114.854 101.238C107.554 109.625 111.754 120.283 117.354 128.177C123.053 136.17 129.553 144.065 137.052 150.479C138.252 151.466 140.852 153.834 143.152 156.597L142.752 156.794C143.152 157.485 143.552 158.275 144.252 159.261C146.252 162.222 146.552 166.366 143.352 166.564Z" fill="white"/>
<path d="M123.353 94.6261L195.049 74.002C202.148 71.9298 209.748 76.0743 211.848 83.0806L227.247 135.282C229.347 142.289 225.147 149.788 218.048 151.86L141.652 173.767" stroke="black" stroke-width="1.6903" stroke-miterlimit="10"/>
<path d="M113.654 181.76L92.655 187.78C85.5554 189.852 77.9559 185.708 75.856 178.701L60.4569 126.5C58.357 119.493 62.5568 111.994 69.6564 109.921L70.2563 109.724L70.7563 109.625L80.5557 106.764" stroke="black" stroke-width="1.6903" stroke-miterlimit="10"/>
<path d="M134.353 175.84H134.253" stroke="black" stroke-width="1.6903" stroke-miterlimit="10"/>
<path d="M123.553 160.15C124.553 165.676 129.253 171.695 134.253 175.938C135.652 177.122 138.852 178.603 140.652 177.221C144.352 174.261 137.952 169.327 136.252 167.353C134.153 164.985 132.353 162.123 131.753 158.965C131.753 158.768 131.653 158.571 131.753 158.373C131.853 158.176 132.153 158.077 132.453 158.176C132.653 158.275 132.853 158.373 133.053 158.571C135.052 160.446 136.852 162.419 138.752 164.393C140.052 165.774 143.452 167.551 145.052 165.774C148.652 161.827 138.452 152.65 135.852 150.38C128.453 143.966 121.853 136.072 116.154 128.079C110.554 120.283 106.254 109.527 113.654 101.139C117.454 96.6984 123.153 94.8235 128.253 92.2578C136.452 88.1133 138.152 81.1069 138.152 81.1069" stroke="black" stroke-width="1.6903" stroke-miterlimit="10"/>
<path d="M118.853 165.774C118.853 165.774 123.053 177.715 132.053 181.366C133.153 181.859 134.352 181.859 135.452 181.267C136.552 180.675 137.452 179.392 135.952 177.024" stroke="black" stroke-width="1.6903" stroke-miterlimit="10"/>
<path d="M112.954 168.538C114.654 172.978 116.754 177.616 120.353 180.873C121.953 182.353 123.953 183.833 126.253 183.932C128.953 184.03 129.253 181.267 128.053 179.491C127.853 179.096 127.553 178.702 127.153 178.406" stroke="black" stroke-width="1.6903" stroke-miterlimit="10"/>
<path d="M120.353 181.872C120.353 181.872 120.153 186.609 116.154 184.931C112.154 183.254 108.354 173.287 105.454 163.025C102.554 152.86 83.4556 134.111 80.6557 114.375V114.573V114.474C80.2558 110.231 80.3557 105.79 81.2557 101.251C89.8552 58.4238 147.552 52.7991 147.552 52.7991" stroke="black" stroke-width="1.6903" stroke-miterlimit="10"/>
<path d="M233.247 142.289C231.647 146.927 227.747 149.887 222.847 150.676C220.747 150.972 218.548 151.268 216.548 150.282C215.148 149.591 213.748 148.012 214.148 146.334C213.548 146.334 212.848 146.236 212.248 146.137C211.448 145.94 210.548 145.545 210.148 144.756C209.748 143.966 210.048 142.881 210.648 142.19C211.248 141.499 212.148 141.104 213.048 140.808C213.248 140.71 213.448 140.71 213.748 140.611C213.048 140.611 212.348 140.611 211.548 140.512C210.148 140.315 208.648 139.723 208.248 138.44C207.948 137.552 208.348 136.565 208.948 135.874C209.548 135.184 210.448 134.789 211.348 134.493C211.448 134.493 211.548 134.394 211.648 134.394C210.048 134.394 208.348 134.098 207.648 132.519C207.148 131.434 207.448 130.151 208.248 129.263C209.648 127.684 211.848 127.388 213.848 127.289C215.948 127.191 218.348 127.092 220.747 126.993C223.047 126.993 224.547 124.822 223.947 122.651C223.047 119.395 222.647 115.744 224.547 114.856C227.447 113.573 229.547 117.125 230.347 119.296C232.847 126.204 235.647 135.184 233.247 142.289Z" fill="white"/>
<path d="M220.847 139.526C218.448 140.019 216.048 140.512 213.648 140.512C213.448 140.611 213.248 140.611 212.948 140.71C212.048 141.006 211.248 141.4 210.548 142.091C209.948 142.782 209.648 143.768 210.048 144.656C210.448 145.446 211.348 145.84 212.148 146.038C212.748 146.235 213.448 146.235 214.048 146.235C215.348 146.235 216.648 146.038 217.948 145.742C218.148 145.742 220.747 145.446 220.947 145.347" stroke="black" stroke-width="1.6903" stroke-miterlimit="10"/>
<path d="M211.448 134.394C211.348 134.394 211.248 134.493 211.148 134.493C210.248 134.789 209.448 135.184 208.748 135.874C208.148 136.565 207.848 137.552 208.048 138.44C208.448 139.722 210.048 140.314 211.348 140.511C212.048 140.61 212.748 140.61 213.548 140.61" stroke="black" stroke-width="1.6903" stroke-miterlimit="10"/>
<path d="M222.847 134.197C222.647 134.197 222.547 134.197 222.347 134.197C219.447 134.296 216.648 134.296 213.748 134.394C213.048 134.394 212.248 134.493 211.448 134.394C209.848 134.394 208.148 134.098 207.448 132.519C206.948 131.434 207.248 130.151 208.048 129.263C209.448 127.684 211.648 127.388 213.648 127.289C215.748 127.191 218.148 127.092 220.547 126.993C222.747 126.993 224.347 124.822 223.747 122.651C222.847 119.395 222.447 115.744 224.347 114.856C227.247 113.573 229.347 117.125 230.147 119.296C232.747 126.006 235.647 134.986 233.147 142.091C231.547 146.729 227.647 149.69 222.747 150.479C220.647 150.775 218.448 151.071 216.448 150.084C215.048 149.394 213.648 147.815 214.048 146.137" stroke="black" stroke-width="1.6903" stroke-miterlimit="10"/>
<path d="M154.651 115.053C154.551 114.658 154.451 114.263 154.351 113.77C153.851 112.191 153.351 110.711 152.851 109.132C152.451 107.751 151.951 106.172 150.752 105.185C148.652 103.31 145.452 104.001 142.752 104.79C140.552 105.481 138.352 106.073 136.152 106.764C134.653 107.257 133.153 107.652 131.753 108.54C130.453 109.428 129.353 110.711 129.153 112.29C128.953 113.474 129.353 114.559 129.653 115.645C130.153 117.125 130.553 118.605 131.053 120.085C131.453 121.566 131.953 123.046 133.153 124.131C135.252 125.908 138.352 125.217 141.052 124.526C143.252 123.835 145.552 123.243 147.752 122.552C151.951 121.368 155.351 119.197 154.651 115.053Z" fill="#FCFCFC"/>
<path d="M145.752 115.941C146.952 114.658 146.252 112.685 144.652 112.29L142.552 111.796L140.452 111.303C138.752 110.908 137.352 112.487 137.852 114.066L138.452 116.04L139.052 118.013C139.552 119.592 141.652 120.086 142.852 118.902L144.352 117.323L145.752 115.941Z" fill="#FE7624"/>
<path d="M256.845 192.813C267.946 192.813 276.944 183.933 276.944 172.978C276.944 162.024 267.946 153.144 256.845 153.144C245.745 153.144 236.746 162.024 236.746 172.978C236.746 183.933 245.745 192.813 256.845 192.813Z" fill="#FE7624"/>
<path d="M253.545 181.859C253.045 181.859 252.645 181.662 252.245 181.366L247.046 176.235C246.346 175.544 246.346 174.459 247.046 173.768C247.746 173.077 248.846 173.077 249.546 173.768L253.445 177.616L263.845 167.354C264.545 166.663 265.645 166.663 266.345 167.354C267.045 168.044 267.045 169.13 266.345 169.821L254.645 181.366C254.445 181.662 254.045 181.859 253.545 181.859Z" fill="#FCFCFC"/>
</svg>
