<svg width="295" height="287" viewBox="0 0 295 287" fill="none" xmlns="http://www.w3.org/2000/svg">
<path d="M42.7323 130.019C53.4317 115.315 69.4307 108.605 69.4307 108.605C69.9306 108.408 67.7308 88.1786 67.7308 86.7971C67.0309 63.2125 71.0305 38.6412 89.0295 21.6683C111.528 0.353414 152.226 -3.98853 178.024 13.8725C177.724 13.6752 186.524 6.76761 187.224 6.37289C192.023 3.51117 197.423 1.83361 203.023 1.43889C225.621 -0.139986 246.22 17.3264 254.72 38.4439C263.219 59.6601 261.219 107.816 245.72 121.73" stroke="#CCDDE2" stroke-width="1.639" stroke-miterlimit="10"/>
<path d="M33.1328 155.577C33.7328 149.459 35.3327 143.834 37.6325 138.801C37.8325 138.308 38.1325 137.815 38.3325 137.321" stroke="#CCDDE2" stroke-width="1.639" stroke-miterlimit="10"/>
<path d="M60.9313 216.856C58.3314 214.488 55.9316 212.12 53.7317 209.752" stroke="#CCDDE2" stroke-width="1.639" stroke-miterlimit="10"/>
<path d="M277.418 147.584C277.418 149.163 277.418 150.84 277.318 152.419C276.818 162.583 274.618 173.044 269.119 181.53C268.119 183.109 267.019 184.589 265.819 185.971C254.12 184.49 252.42 172.649 238.921 166.037C222.722 158.044 196.223 160.906 196.223 160.906L209.322 148.966C208.622 113.145 182.024 115.316 182.024 115.316L180.624 118.572C181.624 115.612 182.724 112.849 183.724 110.283C183.724 110.283 183.724 110.184 183.824 110.184C196.123 79.8895 208.922 76.1397 218.922 71.7977C221.222 71.3043 223.622 70.9097 226.221 70.9097C251.62 70.811 266.619 96.3691 273.118 116.895C274.718 122.026 277.218 132.979 277.618 145.314C277.418 146.202 277.418 146.893 277.418 147.584Z" fill="#FE7624"/>
<path d="M291.718 281.887C289.718 284.552 286.518 286.032 283.118 286.032H244.52C241.52 286.032 238.621 284.848 236.621 282.677C236.521 282.578 236.321 282.381 236.221 282.282C235.021 280.802 234.221 279.026 234.021 277.151C233.821 275.375 235.121 273.894 236.921 273.993C238.321 274.092 239.421 275.177 239.621 276.46C239.621 276.559 239.621 276.756 239.621 276.855C239.721 277.644 240.121 278.335 240.62 278.927C240.82 279.223 241.12 279.421 241.42 279.618C242.22 280.21 243.32 280.506 244.42 280.506H283.318C284.718 280.506 286.118 280.013 287.018 278.927C288.118 277.644 288.418 276.065 287.918 274.486L270.519 223.469C270.419 223.074 270.219 222.679 270.019 222.285C267.919 217.943 263.519 215.18 258.619 215.278C251.32 215.377 242.02 215.377 241.12 215.377C221.622 215.278 212.822 215.279 207.922 215.476C208.222 214.292 208.922 213.206 209.722 212.318C210.922 211.035 212.522 210.344 214.322 210.246C221.522 209.654 228.721 208.568 235.621 206.693C247.82 203.437 259.519 197.812 267.619 188.733C271.419 184.49 274.419 179.458 276.418 173.636C277.918 169.195 278.718 164.656 279.118 160.018C279.218 158.537 279.318 157.057 279.318 155.577V155.478C279.318 155.182 279.318 154.788 279.318 154.492C279.318 152.419 279.318 150.248 279.018 148.176C281.118 148.176 283.218 149.064 284.718 150.446C284.818 150.742 284.918 151.136 285.018 151.531C285.118 151.827 285.118 152.222 285.118 152.617V194.062C285.118 199.983 282.618 205.41 278.718 209.259C275.319 212.515 274.418 217.548 276.018 221.989L293.317 272.71C294.217 275.967 293.717 279.223 291.718 281.887Z" fill="#205EFF"/>
<path d="M53.7317 280.605V164.36H60.9313V280.605H53.7317Z" fill="#2E2E2E"/>
<path d="M196.223 161.004C201.423 160.511 207.322 159.82 213.122 159.919" stroke="black" stroke-width="1.639" stroke-miterlimit="10"/>
<path d="M168.125 166.136C159.025 168.405 150.126 171.662 142.526 177.188C129.827 186.365 123.927 203.437 129.127 218.239C129.127 218.239 146.726 268.368 149.326 275.572C149.526 276.164 149.626 276.46 149.626 276.46H144.226C141.826 276.46 139.526 277.447 138.027 279.026C136.427 280.604 135.627 283.17 135.627 285.637H177.224H184.024L181.424 277.249L180.924 275.671L170.025 240.54L165.625 226.232C165.325 225.245 165.225 224.258 165.225 223.37C165.225 218.14 169.525 213.601 175.124 213.601C179.824 213.699 184.324 213.897 188.824 213.996C194.423 214.094 200.023 214.094 206.022 213.897" stroke="black" stroke-width="1.639" stroke-miterlimit="10"/>
<path d="M277.518 153.011C277.518 152.913 277.518 152.913 277.518 153.011C277.018 140.479 276.418 128.144 272.919 117.19C266.419 96.665 251.42 71.1069 226.021 71.2056C223.522 71.2056 221.122 71.5017 218.722 72.0937C201.923 76.0409 190.323 93.0139 183.624 110.48C183.624 110.48 183.624 110.579 183.524 110.579C182.924 112.256 182.324 113.934 181.724 115.612C181.324 116.796 180.924 117.881 180.324 118.868C176.124 127.058 167.325 132.091 157.825 131.302C127.027 128.539 86.4297 126.96 73.7305 148.275" stroke="black" stroke-width="1.639" stroke-miterlimit="10"/>
<path d="M227.121 129.723C222.621 135.052 217.922 140.183 213.022 145.216C203.023 155.478 194.423 166.234 178.924 167.024C166.525 167.616 154.826 162.879 143.126 159.722C130.627 156.268 124.327 153.505 112.628 149.952C109.228 148.965 105.829 148.373 102.329 148.373L90.6294 148.472" stroke="black" stroke-width="1.639" stroke-miterlimit="10"/>
<path d="M170.025 240.442C178.024 253.171 187.724 271.427 189.824 275.572C190.123 276.164 190.323 276.46 190.323 276.46H184.924C183.724 276.46 182.524 276.756 181.424 277.151C181.424 277.151 181.424 277.151 181.324 277.151" stroke="black" stroke-width="1.639" stroke-miterlimit="10"/>
<path d="M176.124 286.032H177.224H183.824H226.521L221.122 275.572L188.824 213.897V213.798" stroke="black" stroke-width="1.639" stroke-miterlimit="10"/>
<path d="M291.718 281.887C289.718 284.552 286.518 286.032 283.118 286.032H244.52C241.32 286.032 238.221 284.749 236.221 282.282C235.021 280.802 234.221 279.026 234.021 277.151C233.821 275.375 235.121 273.894 236.921 273.993C238.321 274.092 239.421 275.177 239.621 276.46C239.721 277.348 240.021 278.236 240.721 279.026C241.621 280.111 243.02 280.703 244.42 280.703H283.318C284.718 280.703 286.118 280.21 287.018 279.124C288.118 277.842 288.418 276.263 287.918 274.684L270.519 223.666C268.719 218.732 263.919 215.476 258.619 215.476C251.32 215.574 242.02 215.574 241.12 215.574C219.422 215.476 210.922 215.476 206.423 215.673C206.123 215.673 205.923 215.476 205.923 215.18C205.923 213.107 206.723 211.232 208.022 209.851C209.222 208.568 210.822 207.877 212.622 207.779C219.822 207.187 227.021 206.101 233.921 204.226C246.12 200.97 257.82 195.345 265.919 186.266C269.719 182.023 272.719 176.991 274.719 171.168C276.218 166.728 277.018 162.189 277.418 157.551C277.518 156.07 277.618 154.59 277.618 153.11V153.011C277.618 152.715 277.618 152.321 277.618 152.025C277.618 149.952 277.618 147.781 277.318 145.709C280.818 145.709 284.418 148.275 285.018 151.728C285.118 152.024 285.118 152.419 285.118 152.814V194.26C285.118 200.18 282.618 205.608 278.718 209.456C275.319 212.713 274.418 217.745 276.018 222.186L293.317 272.907C294.217 275.967 293.717 279.223 291.718 281.887Z" stroke="black" stroke-width="1.639" stroke-miterlimit="10"/>
<path d="M106.428 164.359H5.93443C3.43457 164.359 1.43469 162.386 1.43469 159.919C1.43469 157.452 3.43457 155.478 5.93443 155.478H106.428C108.928 155.478 110.928 157.452 110.928 159.919C110.828 162.386 108.828 164.359 106.428 164.359Z" stroke="black" stroke-width="1.639" stroke-miterlimit="10"/>
<path d="M77.9302 286.031H37.3326C35.9327 286.031 34.8328 284.946 34.8328 283.565C34.8328 282.183 35.9327 281.098 37.3326 281.098H77.9302C79.3301 281.098 80.4301 282.183 80.4301 283.565C80.4301 284.946 79.3301 286.031 77.9302 286.031Z" stroke="black" stroke-width="1.639" stroke-miterlimit="10"/>
<path d="M48.1318 151.63V152.025C48.2318 155.084 51.1317 155.577 53.6315 155.577H101.929C104.029 155.577 105.829 153.998 105.829 152.025V151.926C105.829 149.952 104.129 148.472 102.029 148.472C102.029 148.472 75.0303 148.373 54.0315 148.275C53.6315 149.36 52.7316 150.248 51.5317 150.84C50.3317 151.433 49.0318 151.63 48.1318 151.63Z" stroke="black" stroke-width="1.639" stroke-miterlimit="10"/>
<path d="M21.5334 108.803C21.5334 109.296 21.6335 109.79 21.9334 110.283L44.3322 147.387C44.8322 148.275 45.8321 148.867 46.9321 149.064C47.832 149.262 48.7319 149.163 49.6319 148.768C51.0318 148.176 51.8318 146.992 51.7319 145.709C51.7319 145.512 51.7318 145.413 51.6318 145.216C51.5318 144.92 51.4319 144.525 51.2319 144.229L28.8331 107.125C27.8331 105.546 25.4332 104.856 23.5333 105.744C22.3334 106.336 21.5334 107.52 21.5334 108.803Z" stroke="black" stroke-width="1.639" stroke-miterlimit="10"/>
<path d="M82.1299 148.373C82.1299 148.373 84.8298 145.807 91.0294 141.861" stroke="black" stroke-width="1.639" stroke-miterlimit="10"/>
<path d="M104.129 106.731L94.3293 117.487C92.9294 119.066 90.5295 119.263 88.8297 117.881C86.9298 116.401 86.8297 113.638 88.5296 111.961L90.3296 110.283C90.4296 110.184 90.4295 110.086 90.5295 109.987L91.8295 108.605L102.929 96.6652C105.729 93.7048 109.828 92.2245 113.828 92.9153C113.928 92.9153 113.928 92.9153 114.028 92.9153" stroke="black" stroke-width="1.639" stroke-miterlimit="10"/>
<path d="M118.028 109.592H108.228C105.929 109.592 104.029 107.717 104.029 105.448C104.029 103.178 105.929 101.303 108.228 101.303H122.228" stroke="black" stroke-width="1.639" stroke-miterlimit="10"/>
<path d="M110.428 109.592C110.328 111.27 109.628 112.552 108.628 113.44C106.128 115.71 101.529 115.414 98.329 113.934" stroke="black" stroke-width="1.639" stroke-miterlimit="10"/>
<path d="M91.9293 108.605C89.1295 105.25 89.7295 100.711 91.9293 97.1586C101.029 82.554 118.328 91.5338 129.727 97.8493C136.527 101.599 142.926 105.941 149.126 110.678C154.526 114.822 159.525 119.855 166.025 122.322C169.925 123.802 174.524 124.197 178.424 122.421" stroke="black" stroke-width="1.639" stroke-miterlimit="10"/>
<path d="M108.728 113.441C108.728 113.441 117.928 119.954 128.327 129.624" stroke="black" stroke-width="1.639" stroke-miterlimit="10"/>
<path d="M192.223 34.7923C193.823 36.2725 196.423 36.3712 198.523 36.1738C201.223 35.9764 203.823 35.2857 206.422 34.7923L208.022 34.6936C209.322 34.6936 210.322 35.7791 210.322 36.9633C210.322 39.1342 210.222 43.0814 209.322 47.0286L212.322 48.6074C212.722 47.522 212.222 45.9432 213.222 45.8445C213.822 44.759 214.722 44.0682 216.122 44.8577C218.822 46.4366 219.922 51.1732 217.322 53.3441L219.022 56.5018C220.222 58.7715 222.922 59.857 225.321 59.0676C224.321 56.798 223.621 55.3177 223.621 55.3177C227.621 56.0085 230.521 51.0745 229.221 48.0154C228.421 45.9431 228.421 44.2656 229.521 42.292C229.621 42.1933 228.821 41.996 228.921 41.7986C228.921 40.3184 228.521 38.7395 227.821 37.9501C226.521 36.5686 223.921 36.3711 224.521 34.2989C224.721 33.4107 224.821 32.424 224.821 31.5359C224.621 29.1676 223.121 26.7993 221.122 25.5165C219.022 24.1349 216.622 25.4177 214.322 25.319C211.522 25.319 209.622 22.9507 206.723 22.9507C205.323 22.9507 204.123 23.4442 202.923 24.1349C201.923 24.727 200.823 25.3191 199.923 26.0099C199.023 26.6019 198.023 27.2926 196.923 27.2926C195.423 27.2926 193.923 26.3058 192.323 26.7992C191.523 26.9966 190.823 27.49 190.423 28.0821C189.723 30.4504 190.623 33.4107 192.223 34.7923Z" fill="#0F0F0F"/>
<path d="M212.322 48.3118C212.522 47.5223 212.822 46.6342 213.222 45.9434C213.822 44.8579 214.722 44.1672 216.122 44.9566C218.822 46.5355 219.922 51.2721 217.322 53.4431L219.022 56.6009C220.222 58.8706 222.922 59.956 225.321 59.1666" stroke="black" stroke-width="1.639" stroke-miterlimit="10" stroke-linecap="round" stroke-linejoin="round"/>
<path d="M223.621 55.3184C223.621 55.3184 224.321 56.8973 225.321 59.0683C225.721 59.9564 227.021 62.7194 228.321 65.5812C229.221 67.6535 230.221 69.7257 230.921 71.3046" stroke="black" stroke-width="1.639" stroke-miterlimit="10" stroke-linecap="round" stroke-linejoin="round"/>
<path d="M195.723 41.799C195.723 41.799 200.823 40.5162 203.023 44.3646" stroke="black" stroke-width="1.639" stroke-miterlimit="10"/>
<path d="M197.223 53.1474C195.823 53.5421 194.023 53.8381 192.923 52.654L195.223 47.9173C195.823 46.7331 195.923 45.4502 195.623 44.1674C195.123 42.0951 193.823 38.8387 195.223 36.0757" stroke="black" stroke-width="1.639" stroke-miterlimit="10"/>
<path d="M200.707 46.6582C201.078 46.0515 200.764 45.1948 200.008 44.7447C199.251 44.2946 198.337 44.4215 197.967 45.0283C197.596 45.635 197.909 46.4918 198.666 46.9419C199.423 47.392 200.336 47.265 200.707 46.6582Z" fill="black"/>
<path d="M208.022 76.7317L206.823 63.6074" stroke="black" stroke-width="1.639" stroke-miterlimit="10"/>
<path d="M212.322 48.7061C212.322 48.6075 212.322 48.5088 212.322 48.3116C212.322 48.213 212.322 48.0158 212.322 47.9172" stroke="black" stroke-width="1.639" stroke-miterlimit="10" stroke-linecap="round" stroke-linejoin="round"/>
<path d="M212.322 48.7067L211.322 48.1145L209.322 47.0291" stroke="black" stroke-width="1.639" stroke-miterlimit="10" stroke-linecap="round" stroke-linejoin="round"/>
<path d="M203.923 53.4434C203.923 53.4434 203.823 56.798 199.923 58.1793" stroke="black" stroke-width="1.639" stroke-miterlimit="10"/>
<path d="M223.621 55.3183C227.621 56.0091 230.521 51.075 229.221 48.016C228.421 45.9437 228.421 44.2662 229.521 42.2926C229.621 42.1939 229.621 41.9965 229.721 41.8978C230.521 40.1216 230.221 38.2466 228.921 36.7664C227.721 35.2862 225.821 34.7928 226.321 32.6219C226.521 31.7338 226.621 30.7469 226.621 29.7601C226.421 27.2931 224.921 24.9249 222.822 23.5433C220.622 22.0631 218.122 23.4446 215.822 23.3459C213.022 23.3459 210.922 20.8789 207.923 20.8789C206.423 20.8789 205.223 21.471 203.923 22.1618C202.823 22.7539 201.823 23.4447 200.823 24.0367C199.823 24.7275 198.923 25.3195 197.723 25.3195C196.123 25.3195 194.623 24.3327 193.023 24.8261C191.424 25.3195 190.524 26.6024 190.224 28.0826C189.724 30.4509 190.624 33.4113 192.224 34.7928C193.823 36.273 196.423 36.3717 198.523 36.1743C201.223 35.977 203.823 35.2862 206.423 34.7928L208.022 34.6941C209.322 34.6941 210.322 35.7797 210.322 36.9638C210.322 39.1348 210.222 43.0819 209.322 47.0292" stroke="black" stroke-width="1.639" stroke-miterlimit="10"/>
<path d="M212.922 58.9694C212.922 58.9694 206.922 66.8639 201.523 65.0877C196.123 63.3114 195.923 53.542 195.923 53.542" stroke="black" stroke-width="1.639" stroke-miterlimit="10" stroke-linecap="round" stroke-linejoin="round"/>
<path d="M53.7317 280.605V164.36H60.9313V280.605" fill="#0F0F0F"/>
<path d="M60.4312 96.665C66.8373 96.665 72.0305 91.5401 72.0305 85.2182C72.0305 78.8963 66.8373 73.7712 60.4312 73.7712C54.0251 73.7712 48.8319 78.8963 48.8319 85.2182C48.8319 91.5401 54.0251 96.665 60.4312 96.665Z" fill="#205EFF"/>
<path d="M55.8316 88.1779C55.5316 87.9806 55.2316 87.6845 54.9316 87.3884C54.0317 86.2043 54.0317 84.6254 55.1316 83.5399C55.8315 82.8491 56.7315 82.5531 57.6314 82.6518C57.5315 81.7636 57.7315 80.7769 58.4314 80.0861C59.6314 78.8033 61.7313 78.9019 62.8312 80.1848C63.7312 81.1716 64.1311 82.7505 64.3311 84.0333C64.4311 84.7241 64.4311 85.4148 64.3311 86.1056C64.3311 86.5003 64.1311 88.4739 63.8312 88.5726C61.7313 89.5594 58.0315 89.6581 55.8316 88.1779Z" fill="white"/>
<path d="M142.426 94.0006C145.85 94.0006 148.626 91.2615 148.626 87.8825C148.626 84.5035 145.85 81.7644 142.426 81.7644C139.002 81.7644 136.227 84.5035 136.227 87.8825C136.227 91.2615 139.002 94.0006 142.426 94.0006Z" fill="#205EFF"/>
<path d="M142.026 85.0205C142.226 84.9219 142.426 84.8232 142.626 84.8232C143.426 84.6259 144.226 85.0206 144.426 85.8099C144.626 86.3033 144.526 86.7966 144.326 87.1913C144.826 87.29 145.226 87.6847 145.426 88.178C145.726 89.066 145.226 90.0527 144.326 90.25C143.626 90.4474 142.826 90.3486 142.126 90.0526C141.726 89.9539 141.426 89.7566 141.126 89.5593C140.926 89.4606 140.026 88.9673 140.026 88.77C140.026 87.586 140.826 85.7112 142.026 85.0205Z" fill="white"/>
<path d="M94.1292 80.8763C94.8291 81.4684 95.6291 81.9618 96.4291 82.2578C99.5289 83.5407 103.229 83.1458 105.928 81.1723C106.928 80.3828 107.828 79.2974 108.928 78.508C109.728 77.9159 110.528 77.5212 111.528 77.4225C111.828 77.4225 112.128 77.4224 112.428 77.2251C113.128 76.8304 112.328 76.041 112.228 75.5476C112.128 74.7581 112.328 73.87 112.828 73.1792C114.428 70.8109 114.928 67.6532 113.928 64.8902C113.028 62.1271 110.728 59.8575 107.928 58.9694C105.129 57.9826 101.929 58.3773 99.5288 59.9562C97.729 61.1403 96.3291 62.9166 94.9292 64.5942C93.7292 66.0744 92.4293 67.5545 91.5293 69.2321C89.5295 73.1792 90.8294 78.1133 94.1292 80.8763Z" fill="#205EFF"/>
<path d="M106.529 67.7513C107.689 67.7513 108.629 66.8237 108.629 65.6794C108.629 64.5351 107.689 63.6074 106.529 63.6074C105.369 63.6074 104.429 64.5351 104.429 65.6794C104.429 66.8237 105.369 67.7513 106.529 67.7513Z" fill="white"/>
<path d="M102.529 72.6847C103.688 72.6847 104.629 71.7571 104.629 70.6127C104.629 69.4684 103.688 68.5408 102.529 68.5408C101.369 68.5408 100.429 69.4684 100.429 70.6127C100.429 71.7571 101.369 72.6847 102.529 72.6847Z" fill="white"/>
<path d="M98.729 77.2245C99.8887 77.2245 100.829 76.2969 100.829 75.1525C100.829 74.0082 99.8887 73.0806 98.729 73.0806C97.5693 73.0806 96.629 74.0082 96.629 75.1525C96.629 76.2969 97.5693 77.2245 98.729 77.2245Z" fill="white"/>
<g opacity="0.29">
<path opacity="0.29" d="M158.925 55.9101C158.625 57.489 157.625 58.8706 156.026 59.66L138.627 68.7385C135.827 70.2187 132.427 69.1333 131.027 66.4689L117.228 40.7134C115.728 38.049 116.828 34.5952 119.528 33.2137L136.927 24.1352C139.527 22.7537 143.126 23.8391 144.526 26.4048L158.325 52.0616C159.025 53.3444 159.225 54.6273 158.925 55.9101Z" fill="#205EFF"/>
</g>
<path d="M153.826 53.9367L136.927 47.5225C136.527 47.3251 136.227 46.9304 136.327 46.437L140.227 28.576C140.427 27.6878 141.626 27.5891 142.026 28.3785L155.026 52.5551C155.426 53.3446 154.626 54.2327 153.826 53.9367Z" fill="white"/>
<g opacity="0.29">
<path opacity="0.29" d="M179.124 73.7713C179.824 74.2647 180.324 75.0542 180.324 75.9423L180.924 86.1064C181.024 87.6853 179.824 89.1657 178.124 89.1657L162.625 90.1525C161.025 90.2511 159.625 89.0669 159.525 87.3893L158.925 77.2251C158.825 75.6462 160.125 74.166 161.725 74.166L177.224 73.1792C177.824 73.1792 178.524 73.3765 179.124 73.7713Z" fill="#205EFF"/>
</g>
<path d="M177.024 75.8435L170.225 82.455C170.025 82.6524 169.725 82.6524 169.525 82.455L161.725 76.7315C161.325 76.4355 161.525 75.8435 162.025 75.8435L176.624 74.9553C177.124 74.9553 177.324 75.4487 177.024 75.8435Z" fill="white"/>
<path d="M73.7307 120.94C74.3934 120.94 74.9305 120.41 74.9305 119.756C74.9305 119.102 74.3934 118.572 73.7307 118.572C73.0679 118.572 72.5306 119.102 72.5306 119.756C72.5306 120.41 73.0679 120.94 73.7307 120.94Z" fill="white"/>
<path d="M184.024 285.637H135.527C135.527 283.269 136.327 280.604 137.927 279.026C139.527 277.447 141.726 276.46 144.126 276.46H149.526C149.526 276.46 149.426 276.164 149.226 275.572H180.824L181.324 277.151L184.024 285.637Z" fill="black"/>
<path d="M226.521 286.032H177.224V275.572H180.924L181.424 277.151C182.524 276.657 183.624 276.46 184.924 276.46H190.324C190.324 276.46 190.124 276.164 189.824 275.572H221.022L226.521 286.032Z" fill="black"/>
</svg>
