<svg width="633" height="442" viewBox="0 0 633 442" fill="none" xmlns="http://www.w3.org/2000/svg">
<path d="M212.635 402.964L218.334 434.541C218.634 436.416 220.234 437.699 222.134 437.699H252.032C253.932 437.699 255.532 436.318 255.832 434.443L261.132 402.865H212.635V402.964Z" stroke="#CCDDE2" stroke-width="3.3643" stroke-miterlimit="10"/>
<path d="M207.235 399.411C207.435 401.385 209.035 402.964 211.135 402.964H262.732C264.732 402.964 266.431 401.483 266.631 399.51C266.831 397.24 265.032 395.267 262.732 395.267H211.135C208.835 395.267 207.035 397.24 207.235 399.411Z" stroke="#CCDDE2" stroke-width="3.3643" stroke-miterlimit="10"/>
<path d="M235.233 395.267C235.233 393.688 231.033 373.458 234.533 355.597C236.433 345.828 240.633 336.651 249.032 331.717" stroke="#CCDDE2" stroke-width="3.3643" stroke-miterlimit="10"/>
<path d="M234.533 355.597C234.533 355.597 233.533 341.979 221.634 341.091" stroke="#CCDDE2" stroke-width="3.3643" stroke-miterlimit="10"/>
<path d="M233.333 376.32C233.333 376.32 228.834 372.768 221.734 373.064" stroke="#CCDDE2" stroke-width="3.3643" stroke-miterlimit="10"/>
<path d="M233.333 366.748C233.333 366.748 241.933 356.684 255.732 364.676" stroke="#CCDDE2" stroke-width="3.3643" stroke-miterlimit="10"/>
<path d="M239.333 362.702C239.333 362.702 258.832 345.137 262.632 368.919C262.632 368.919 257.132 372.471 249.032 368.919C241.033 365.268 239.333 362.702 239.333 362.702Z" stroke="#CCDDE2" stroke-width="3.3643" stroke-miterlimit="10"/>
<path d="M230.333 345.236C230.333 345.236 231.033 337.342 221.734 334.776C212.435 332.21 207.235 342.966 207.235 342.966C207.235 342.966 214.334 350.762 230.333 345.236Z" stroke="#CCDDE2" stroke-width="3.3643" stroke-miterlimit="10"/>
<path d="M228.134 373.064C228.134 373.064 228.434 365.07 217.634 366.748C206.835 368.426 205.135 377.504 205.135 377.504C205.135 377.504 222.834 383.918 228.134 373.952" stroke="#CCDDE2" stroke-width="3.3643" stroke-miterlimit="10"/>
<path d="M241.133 339.118C241.133 339.71 249.232 338.427 249.732 338.23C253.632 337.045 256.432 334.381 258.332 330.829C258.932 329.743 262.132 323.526 261.232 322.441C261.232 322.441 241.933 316.323 241.133 339.118Z" stroke="#CCDDE2" stroke-width="3.3643" stroke-miterlimit="10"/>
<path d="M213.235 439.081C205.735 439.081 198.435 438.785 191.336 438.094C143.439 433.752 105.541 415.101 80.3424 389.05C66.6432 374.939 56.6438 358.657 50.8442 341.289C45.1445 324.415 43.4446 306.455 45.9444 288.594C63.3434 166.625 209.535 225.932 148.238 151.725C86.9421 77.5173 206.935 -16.9194 252.932 5.38223C298.929 27.6839 248.232 75.5437 361.926 52.8473C475.719 30.2496 452.12 129.522 452.12 129.522" stroke="#CCDDE2" stroke-width="3.3643" stroke-miterlimit="10"/>
<path d="M519.616 333.789C519.616 333.789 571.713 296.883 591.812 337.737C591.812 337.737 570.613 263.727 498.518 237.28C498.518 237.28 477.919 225.932 477.019 232.84C476.119 239.649 470.119 243.201 467.519 243.102C464.92 243.004 442.821 244.385 442.021 241.129C441.221 237.872 442.721 228.103 431.722 228.004C420.722 227.906 361.326 242.412 344.327 257.608C344.327 257.608 373.925 292.837 358.126 331.717L371.425 328.559C371.425 328.559 363.226 398.819 374.425 439.673H568.013C568.013 439.673 548.615 442.041 528.816 428.127L500.017 391.616C500.017 391.616 487.418 372.669 461.52 370.005C461.52 370.005 446.821 368.426 446.921 361.518C447.021 354.611 441.621 365.959 434.321 355.992C433.421 355.992 415.823 356.979 415.823 356.979C415.823 356.979 402.623 358.163 400.023 346.519C397.524 334.875 388.324 252.872 391.624 247.938C394.924 243.004 396.224 242.905 424.022 243.102C451.92 243.3 476.419 237.774 479.919 251.49C483.418 265.207 487.518 317.014 487.518 317.014C487.518 317.014 503.217 321.06 515.217 337.835C515.317 337.737 519.616 345.927 519.616 333.789Z" fill="#FE7624"/>
<path d="M519.616 308.922V341.19" stroke="black" stroke-width="3.3643" stroke-miterlimit="10"/>
<path d="M372.225 325.007C341.527 341.19 256.532 374.051 253.532 247.444C253.532 247.444 257.232 214.189 247.632 209.847C238.133 205.505 222.734 191.789 242.533 158.534L229.633 145.804C226.134 142.35 225.934 136.923 229.133 133.173C231.033 131.002 233.733 129.917 236.333 129.917C238.833 129.917 241.333 130.903 243.133 132.877L268.831 159.718C268.831 159.718 272.531 152.81 279.131 156.461C285.73 160.113 309.929 175.309 298.929 207.084L327.528 288.1" stroke="black" stroke-width="3.3643" stroke-miterlimit="10"/>
<path d="M268.931 159.619C268.931 159.619 262.132 169.882 276.631 180.441" stroke="black" stroke-width="3.3643" stroke-miterlimit="10"/>
<path d="M238.333 166.428C238.333 166.428 234.033 179.651 251.232 188.138C257.332 191.197 264.031 184.783 261.132 178.665C261.132 178.566 261.032 178.467 261.032 178.369" stroke="black" stroke-width="3.3643" stroke-miterlimit="10"/>
<path d="M233.133 182.71C233.133 182.71 236.933 195.638 247.232 196.23C256.332 196.822 254.832 187.644 254.832 187.644" stroke="black" stroke-width="3.3643" stroke-miterlimit="10"/>
<path d="M409.223 174.717C409.923 174.914 410.323 174.322 411.023 174.421C420.322 172.743 427.322 165.441 428.122 161.987C427.822 163.862 424.322 163.665 424.922 165.639C425.022 166.033 425.222 165.836 425.422 166.231C425.722 166.921 425.722 165.935 426.122 166.625C428.422 163.27 429.722 161.593 430.122 159.816C429.822 161.691 430.022 163.764 430.622 165.737C430.722 166.132 430.822 166.428 431.022 166.823C432.421 170.079 435.321 172.842 440.221 173.533C441.321 173.632 442.621 173.73 443.921 173.632C447.421 173.434 450.42 173.237 452.92 173.138C461.52 172.743 464.62 173.434 463.62 178.862C463.32 180.638 462.52 183.006 461.42 186.065C459.72 190.506 458.52 198.104 460.32 206.492C462.32 216.163 468.719 223.761 482.518 230.767C484.918 232.05 487.518 233.136 490.018 234.024C513.817 242.708 570.813 264.812 594.412 345.828C596.912 354.413 598.812 362.308 600.111 369.511C600.311 369.413 600.512 369.314 600.811 369.117C616.911 359.545 627.51 338.131 624.31 319.777C622.71 310.599 616.711 304.284 608.911 299.449C603.511 296.093 597.712 293.429 592.812 289.285C576.713 275.667 589.612 254.549 580.613 238.366C570.513 220.11 554.814 208.86 534.215 207.874C529.016 208.071 523.216 208.663 517.516 208.466C509.317 208.762 500.917 208.071 494.918 202.742C490.218 198.598 489.218 191.887 487.418 186.263C485.418 179.947 483.718 173.434 482.419 166.921C481.119 160.803 479.019 154.784 475.719 149.356C472.219 143.534 467.219 138.502 461.32 135.146C456.32 132.285 450.42 130.607 444.421 130.212C438.921 130.607 433.621 132.087 429.022 134.752C427.422 135.64 425.922 136.725 424.522 138.008C414.023 146.692 409.023 161.494 409.223 174.717Z" fill="#0F0F0F"/>
<path d="M251.532 195.539C251.532 195.539 254.832 199.584 253.032 203.532C251.232 207.38 246.733 208.268 242.333 206.591" stroke="black" stroke-width="3.3643" stroke-miterlimit="10"/>
<path d="M242.533 158.435L251.732 167.514" stroke="black" stroke-width="3.3643" stroke-miterlimit="10"/>
<path d="M487.618 316.027L480.119 252.28C479.519 246.951 474.919 242.905 469.419 242.905H400.623C394.224 242.905 389.324 248.333 389.924 254.648L399.923 346.421C400.523 351.749 405.123 355.894 410.623 355.894H435.221" stroke="black" stroke-width="3.3643" stroke-miterlimit="10"/>
<path d="M406.323 259.088C407.869 259.088 409.123 257.851 409.123 256.325C409.123 254.799 407.869 253.562 406.323 253.562C404.777 253.562 403.523 254.799 403.523 256.325C403.523 257.851 404.777 259.088 406.323 259.088Z" fill="black"/>
<path d="M452.62 330.73C445.321 332.309 443.921 332.408 436.821 333.395C432.422 334.086 422.222 334.579 422.022 327.77C421.822 321.751 428.622 318.297 433.421 316.422C438.921 314.251 444.821 313.165 450.62 312.475C453.02 312.179 455.52 311.981 457.92 311.883C474.919 311.192 494.518 315.238 506.217 328.362C533.316 358.756 569.413 378.294 569.413 378.294" stroke="black" stroke-width="3.3643" stroke-miterlimit="10"/>
<path d="M433.221 333.79C429.722 335.27 423.822 338.329 426.222 344.348C427.322 347.111 429.322 348.098 432.121 348.493C438.021 349.381 444.421 348.098 450.22 346.914C452.42 346.421 456.22 345.631 458.32 345.039" stroke="black" stroke-width="3.3643" stroke-miterlimit="10"/>
<path d="M439.421 348.591C439.421 348.591 433.121 348.493 434.621 354.315C437.121 363.887 456.72 359.644 465.92 357.571" stroke="black" stroke-width="3.3643" stroke-miterlimit="10"/>
<path d="M439.021 228.498C409.223 229.781 363.725 238.366 322.528 273.595" stroke="black" stroke-width="3.3643" stroke-miterlimit="10"/>
<path d="M213.235 439.081L568.013 439.574" stroke="black" stroke-width="3.3643" stroke-miterlimit="10"/>
<path d="M372.225 311.882C372.225 311.882 365.226 376.024 372.225 439.179" stroke="black" stroke-width="3.3643" stroke-miterlimit="10"/>
<path opacity="0.54" d="M64.2434 282.574L2.84704 127.45C-0.45276 114.621 9.44665 102.188 22.8459 102.188H266.531C277.831 102.188 287.63 109.786 290.23 120.641L357.426 275.766C360.526 288.594 350.726 300.929 337.327 300.929H87.842C76.6427 300.732 66.9432 293.232 64.2434 282.574Z" fill="white"/>
<path d="M64.2434 282.574L2.84704 127.45C-0.45276 114.621 9.44665 102.188 22.8459 102.188H266.531C277.831 102.188 287.63 109.786 290.23 120.641L357.426 275.766C360.526 288.594 350.726 300.929 337.327 300.929H87.842C76.6427 300.732 66.9432 293.232 64.2434 282.574Z" fill="#FCFCFC"/>
<path d="M64.2434 282.574L2.84704 127.45C-0.45276 114.621 9.44665 102.188 22.8459 102.188H266.531C277.831 102.188 287.63 109.786 290.23 120.641L357.426 275.766C360.526 288.594 350.726 300.929 337.327 300.929H87.842C76.6427 300.732 66.9432 293.232 64.2434 282.574Z" stroke="black" stroke-width="3.3643" stroke-miterlimit="10" stroke-linecap="square" stroke-linejoin="round"/>
<path d="M73.2428 276.259L16.6462 133.173C13.6464 121.331 22.7458 109.786 35.1451 109.786H259.932C270.331 109.786 279.331 116.792 281.83 126.759L343.827 269.845C346.726 281.686 337.627 293.034 325.328 293.034H95.0415C84.7421 293.034 75.7426 286.127 73.2428 276.259Z" fill="#205EFF"/>
<path d="M243.633 136.133C240.633 131.693 235.733 129.719 232.733 131.693C229.734 133.666 229.633 138.896 232.633 143.337C233.133 144.028 233.633 144.62 234.233 145.212L212.134 191.197C208.635 188.828 204.735 188.335 201.935 190.111C200.135 191.295 199.135 193.269 198.835 195.637L183.736 190.605L170.537 186.263C169.137 185.769 167.637 185.375 166.237 184.881C165.737 183.401 164.937 181.822 164.037 180.342C159.838 174.125 153.038 171.362 148.738 174.224C144.539 176.987 144.439 184.191 148.538 190.309L123.44 224.255C117.94 219.814 111.541 218.432 107.041 221.393C100.941 225.439 100.841 235.8 106.841 244.681C107.041 245.076 107.341 245.372 107.641 245.668L90.9418 268.266C90.9418 268.365 90.8418 268.463 90.7418 268.463C88.9419 271.128 89.7419 274.68 92.3417 276.456C95.0415 278.233 98.6413 277.443 100.441 274.877L115.34 252.773C120.04 255.437 125.04 255.931 128.739 253.563C134.539 249.714 134.839 240.043 129.639 231.458L153.738 195.637C157.338 198.006 161.238 198.598 164.037 196.822C165.637 195.835 166.537 194.157 167.037 192.184C167.637 192.381 168.237 192.48 168.837 192.677L182.236 196.328L199.435 200.867C199.935 202.742 200.735 204.716 202.035 206.591C206.235 212.808 213.034 215.571 217.334 212.709C221.634 209.946 221.634 202.644 217.434 196.427C216.834 195.539 216.134 194.651 215.334 193.861L236.333 146.889C238.833 148.567 241.633 149.06 243.633 147.679C246.632 145.804 246.632 140.574 243.633 136.133Z" fill="white"/>
<path d="M83.7422 138.699H51.1442C48.1443 138.699 45.3445 136.923 44.1446 134.16C43.9446 133.765 43.8446 133.272 43.8446 132.877C43.8446 131.101 45.2445 129.621 47.2444 129.621H81.8424C80.1425 132.285 81.0424 136.035 83.7422 138.699Z" fill="#F4F4F4"/>
<path d="M104.741 135.344C104.741 137.12 103.341 138.601 101.441 138.601H83.7421C81.0423 135.936 80.2424 132.186 81.8423 129.423H97.4414C100.441 129.423 103.241 131.2 104.441 133.963C104.641 134.456 104.741 134.949 104.741 135.344Z" fill="#0F0F0F"/>
<path d="M95.6414 138.699C95.5414 138.896 95.4415 138.995 95.3415 139.193C93.0416 142.35 87.9419 142.646 84.0421 139.785C83.5421 139.489 83.1422 139.094 82.7422 138.699C80.0424 136.035 79.2424 132.285 80.8423 129.522C80.9423 129.325 81.0423 129.226 81.1423 129.029C83.4422 125.871 88.4419 125.575 92.4416 128.436C92.9416 128.831 93.3416 129.127 93.7415 129.522C96.4414 132.186 97.2413 135.936 95.6414 138.699Z" fill="white"/>
<path d="M112.94 155.574C112.94 157.35 111.54 158.83 109.541 158.83H75.3427C77.0426 156.067 76.1426 152.317 73.4428 149.653H105.541C108.541 149.653 111.34 151.429 112.54 154.192C112.84 154.686 112.94 155.08 112.94 155.574Z" fill="#0F0F0F"/>
<path d="M75.4427 158.83H59.3437C56.3439 158.83 53.544 157.054 52.3441 154.291C52.1441 153.896 52.0441 153.403 52.0441 152.909C52.0441 151.133 53.444 149.653 55.3439 149.653H73.5428C76.2426 152.416 77.0426 156.166 75.4427 158.83Z" fill="#F4F4F4"/>
<path d="M75.4426 158.83C75.3427 159.027 75.2427 159.126 75.1427 159.323C72.8428 162.481 67.8431 162.777 63.8434 159.915C63.3434 159.521 62.9434 159.225 62.5434 158.83C59.8436 156.166 59.0436 152.416 60.6436 149.653C60.7435 149.455 60.8435 149.357 60.9435 149.159C63.2434 146.002 68.3431 145.706 72.2428 148.567C72.7428 148.863 73.1428 149.258 73.5427 149.653C76.2426 152.416 77.0425 156.166 75.4426 158.83Z" fill="white"/>
<path d="M86.842 178.862H66.3433C63.3434 178.862 60.5436 177.086 59.3437 174.323C59.1437 173.928 59.0436 173.434 59.0436 173.04C59.0436 171.263 60.4436 169.685 62.4435 169.685H84.9421C83.2422 172.448 84.1422 176.197 86.842 178.862Z" fill="#0F0F0F"/>
<path d="M119.94 175.605C119.94 177.382 118.54 178.862 116.64 178.862H86.842C84.1422 176.197 83.3422 172.448 84.9421 169.685H112.74C115.74 169.685 118.54 171.461 119.74 174.224C119.84 174.717 119.94 175.211 119.94 175.605Z" fill="#F4F4F4"/>
<path d="M99.7412 178.862C99.6412 179.059 99.5412 179.158 99.4412 179.355C97.1414 182.513 92.1417 182.809 88.1419 179.947C87.642 179.552 87.242 179.256 86.842 178.862C84.1422 176.197 83.3422 172.448 84.9421 169.685C85.0421 169.487 85.1421 169.388 85.2421 169.191C87.5419 166.033 92.6416 165.737 96.5414 168.599C97.0414 168.895 97.4414 169.29 97.8414 169.685C100.541 172.448 101.341 176.197 99.7412 178.862Z" fill="white"/>
<path d="M219.134 273.496H198.635C195.635 273.496 192.836 271.72 191.636 268.957C191.436 268.562 191.336 268.069 191.336 267.674C191.336 265.898 192.736 264.319 194.736 264.319H217.234C215.634 266.983 216.434 270.733 219.134 273.496Z" fill="#0F0F0F"/>
<path d="M300.429 270.141C300.429 271.917 299.029 273.397 297.129 273.397H219.234C216.534 270.733 215.734 266.983 217.334 264.22H293.23C296.23 264.22 299.029 265.996 300.229 268.759C300.329 269.253 300.429 269.746 300.429 270.141Z" fill="#F4F4F4"/>
<path d="M232.033 273.496C231.933 273.693 231.833 273.792 231.733 273.989C229.434 277.147 224.434 277.443 220.434 274.582C219.934 274.187 219.534 273.891 219.134 273.496C216.434 270.832 215.634 267.082 217.234 264.319C217.334 264.121 217.434 264.023 217.534 263.825C219.834 260.668 224.934 260.372 228.834 263.233C229.334 263.529 229.733 263.924 230.133 264.319C232.833 266.983 233.733 270.733 232.033 273.496Z" fill="white"/>
<path d="M598.912 372.669C601.511 371.682 604.011 370.498 606.411 369.018C622.51 359.446 633.11 338.033 629.91 319.678C628.31 310.501 622.31 304.185 614.511 299.35C609.111 295.995 603.311 293.33 598.412 289.186C582.313 275.568 595.212 254.451 586.212 238.267C575.313 218.531 557.914 206.985 534.915 207.775C523.916 208.17 509.517 210.637 500.517 202.644C495.818 198.499 494.818 191.789 493.018 186.164C491.018 179.848 489.318 173.336 487.918 166.921C486.618 160.803 484.518 154.784 481.219 149.356C477.619 143.534 472.719 138.502 466.819 135.146C455.62 128.831 440.121 128.239 428.822 134.752C427.222 135.64 425.722 136.725 424.322 137.91C413.923 146.692 408.923 161.494 409.223 174.717" stroke="black" stroke-width="3.3643" stroke-miterlimit="10"/>
<path d="M430.322 158.534C429.722 162.382 427.322 166.033 423.122 167.119C418.322 168.303 415.823 172.941 414.423 177.579C412.423 184.388 413.023 191.591 415.823 198.104C418.422 204.223 423.122 211.13 431.022 212.314C445.521 214.387 452.72 208.367 452.72 208.367" stroke="black" stroke-width="3.3643" stroke-miterlimit="10"/>
<path d="M448.121 360.334C444.521 362.505 447.421 366.156 450.02 367.34C454.52 369.413 460.32 369.807 465.32 370.4C502.717 374.741 515.117 425.364 538.615 434.739C562.014 444.113 625.01 451.021 594.312 345.828C570.713 264.812 513.717 242.708 489.918 234.024C487.318 233.136 484.818 232.05 482.419 230.767C468.719 223.761 462.22 216.163 460.22 206.492C458.52 198.203 459.62 190.506 461.32 186.065C462.52 183.006 463.22 180.638 463.52 178.862C464.82 171.855 459.32 172.842 443.821 173.632C436.721 174.026 432.721 170.869 430.922 166.823C430.722 166.428 430.622 166.132 430.522 165.737C429.822 163.369 429.722 160.902 430.222 158.731" stroke="black" stroke-width="3.3643" stroke-miterlimit="10"/>
<path d="M431.722 177.48C431.722 177.48 429.122 186.855 429.422 188.335C429.722 189.815 433.021 188.631 433.021 188.631" stroke="black" stroke-width="3.3643" stroke-miterlimit="10"/>
<path d="M433.521 197.216C438.521 199.88 444.321 198.203 446.621 193.763" stroke="black" stroke-width="3.3643" stroke-miterlimit="10"/>
<path d="M454.607 186.557C458.89 182.079 458.586 174.93 453.928 170.591C449.269 166.252 442.02 166.364 437.737 170.843C433.453 175.321 433.757 182.469 438.416 186.809C443.075 191.148 450.324 191.035 454.607 186.557Z" stroke="black" stroke-width="3.3643" stroke-miterlimit="10"/>
<path d="M425.581 183.913C429.864 179.435 429.56 172.287 424.901 167.947C420.243 163.608 412.994 163.721 408.711 168.199C404.427 172.678 404.731 179.826 409.39 184.165C414.048 188.505 421.297 188.392 425.581 183.913Z" stroke="black" stroke-width="3.3643" stroke-miterlimit="10"/>
<path d="M416.922 168.302C417.122 168.302 417.422 168.302 417.622 168.302C422.022 168.697 425.422 172.545 425.122 176.887C424.822 180.933 421.522 183.992 417.422 183.992C417.222 183.992 416.922 183.992 416.722 183.992C412.323 183.598 408.923 179.749 409.223 175.407C409.523 171.361 412.823 168.302 416.922 168.302ZM416.922 166.625C412.023 166.625 407.923 170.374 407.523 175.308C407.123 180.538 411.223 185.176 416.522 185.67C416.822 185.67 417.122 185.67 417.422 185.67C422.322 185.67 426.422 181.92 426.822 176.986C427.222 171.756 423.122 167.118 417.822 166.625C417.522 166.625 417.222 166.625 416.922 166.625Z" fill="white"/>
<path d="M434.721 177.677L428.622 177.184" stroke="black" stroke-width="3.3643" stroke-miterlimit="10"/>
<path d="M445.921 170.671C446.221 170.671 446.421 170.671 446.721 170.671C451.22 171.066 454.72 175.013 454.42 179.552C454.12 183.697 450.72 186.855 446.521 186.855C446.221 186.855 446.021 186.855 445.721 186.855C441.221 186.46 437.721 182.513 438.021 177.974C438.321 173.829 441.721 170.671 445.921 170.671ZM445.921 168.994C440.821 168.994 436.621 172.842 436.321 177.875C435.921 183.204 440.021 187.94 445.521 188.434C445.821 188.434 446.121 188.434 446.421 188.434C451.52 188.434 455.72 184.585 456.02 179.552C456.42 174.224 452.32 169.487 446.821 168.994C446.521 168.994 446.221 168.994 445.921 168.994Z" fill="white"/>
<path d="M424.417 182.83C428.094 178.985 427.819 172.836 423.803 169.096C419.787 165.355 413.551 165.439 409.874 169.283C406.197 173.127 406.472 179.276 410.488 183.017C414.504 186.758 420.74 186.674 424.417 182.83Z" fill="#FCFCFC"/>
<path d="M453.455 185.477C457.169 181.593 456.925 175.412 452.909 171.671C448.893 167.93 442.626 168.046 438.911 171.93C435.197 175.814 435.441 181.995 439.457 185.736C443.473 189.477 449.74 189.361 453.455 185.477Z" fill="#FCFCFC"/>
<path d="M470.819 243.004C473.919 239.846 476.519 235.208 478.319 228.498" stroke="black" stroke-width="3.3643" stroke-miterlimit="10"/>
<path d="M442.421 242.905L439.021 228.498L435.321 212.906" stroke="black" stroke-width="3.3643" stroke-miterlimit="10"/>
<path d="M441.238 309.746C446.866 308.614 450.374 302.588 449.072 296.286C447.771 289.985 442.154 285.794 436.526 286.926C430.898 288.058 427.39 294.084 428.692 300.385C429.993 306.687 435.61 310.878 441.238 309.746Z" fill="#205EFF"/>
<path d="M442.421 179.355C443.802 179.355 444.921 178.25 444.921 176.888C444.921 175.526 443.802 174.421 442.421 174.421C441.04 174.421 439.921 175.526 439.921 176.888C439.921 178.25 441.04 179.355 442.421 179.355Z" fill="black"/>
<path d="M420.522 177.677C421.903 177.677 423.022 176.573 423.022 175.21C423.022 173.848 421.903 172.744 420.522 172.744C419.142 172.744 418.022 173.848 418.022 175.21C418.022 176.573 419.142 177.677 420.522 177.677Z" fill="black"/>
<path d="M50.8442 341.289C56.6438 358.657 66.6432 374.939 80.3424 389.05C105.541 415.102 143.439 433.752 191.336 438.094V341.289H50.8442Z" stroke="#CCDDE2" stroke-width="3.3643" stroke-miterlimit="10"/>
<path d="M80.3424 389.05C105.541 415.101 143.439 433.752 191.336 438.094V389.05H80.3424Z" stroke="#CCDDE2" stroke-width="3.3643" stroke-miterlimit="10"/>
<path d="M102.041 373.064C105.941 373.064 109.141 369.906 109.141 366.058C109.141 362.209 105.941 359.051 102.041 359.051C98.1414 359.051 94.9416 362.209 94.9416 366.058C94.9416 370.005 98.1414 373.064 102.041 373.064Z" stroke="#CCDDE2" stroke-width="3.3643" stroke-miterlimit="10"/>
</svg>
